<?xml version="1.0" standalone="no"?>
<!DOCTYPE svg PUBLIC "-//W3C//DTD SVG 20010904//EN"
 "http://www.w3.org/TR/2001/REC-SVG-20010904/DTD/svg10.dtd">
<svg version="1.0" id="Image_1" xmlns="http://www.w3.org/2000/svg"
 width="506.000000pt" height="606.000000pt" viewBox="0 0 506.000000 606.000000"
 preserveAspectRatio="xMidYMid meet">

<g transform="translate(0.000000,606.000000) scale(0.100000,-0.100000)"
fill="#000000" stroke="none">
<path class="tree" d="M2061 5368 c12 -24 42 -67 66 -96 25 -29 43 -55 41 -58 -16 -16 -332
142 -354 177 -13 22 -22 6 -12 -23 15 -44 69 -119 143 -197 l60 -63 -75 5
c-58 5 -65 4 -30 -3 25 -5 67 -9 93 -9 l48 -1 -37 33 c-53 45 -184 205 -184
223 0 14 35 -4 111 -57 14 -10 84 -41 155 -70 71 -28 135 -56 142 -62 7 -5 15
-8 18 -5 2 3 -7 13 -20 22 -25 16 -151 174 -144 181 1 2 35 -19 73 -45 120
-83 168 -108 216 -113 25 -3 58 -12 72 -22 31 -20 117 -47 117 -37 0 4 -19 19
-43 34 -37 24 -189 168 -177 168 3 0 32 -11 65 -25 33 -13 79 -25 102 -25 23
0 65 -5 93 -11 28 -6 53 -9 56 -6 8 7 -128 37 -171 37 -40 0 -156 47 -169 69
-4 6 -14 11 -22 11 -15 0 32 -76 83 -133 13 -16 23 -31 20 -33 -4 -4 -85 26
-117 44 -8 5 -51 28 -95 52 -44 24 -92 51 -107 61 -38 27 -41 24 -17 -23z"/>
<path class="tree" d="M2941 5337 c25 -26 58 -70 73 -97 31 -56 82 -192 98 -258 11 -49 23
-48 32 5 11 60 83 196 126 238 l40 39 -10 -35 c-19 -63 -22 -249 -6 -309 l15
-55 -7 50 c-10 75 -7 243 7 304 6 30 9 56 6 59 -3 3 -27 -18 -53 -46 -41 -44
-106 -160 -127 -227 -4 -14 -14 2 -34 60 -61 172 -106 250 -174 296 -25 18
-22 12 14 -24z"/>
<path class="tree" d="M2898 5322 c8 -26 18 -96 22 -157 l7 -110 1 106 c2 101 -15 190 -38
204 -4 3 -1 -16 8 -43z"/>
<path class="tree" d="M2721 5250 c61 -32 88 -59 146 -150 42 -66 64 -81 34 -22 -41 77
-108 149 -165 176 -74 35 -85 32 -15 -4z"/>
<path class="tree" d="M2620 5117 c0 -2 21 -12 48 -22 64 -25 99 -49 203 -145 49 -45 89
-77 89 -72 0 19 -191 179 -243 205 -56 26 -97 41 -97 34z"/>
<path class="tree" d="M1600 5079 c-221 -50 -239 -52 -342 -40 -51 7 -119 19 -151 28 -32 9
-60 13 -63 10 -11 -11 35 -73 84 -114 26 -22 81 -57 121 -77 73 -37 272 -96
324 -96 39 0 34 -13 -15 -38 -88 -45 -299 -188 -354 -240 -47 -45 -151 -107
-255 -153 -62 -26 -114 -51 -117 -54 -3 -3 28 -5 69 -5 65 0 289 47 362 75 9
4 17 3 17 -1 0 -24 -238 -305 -361 -427 -33 -32 -59 -60 -59 -62 0 -8 130 44
191 76 32 17 76 47 96 66 28 26 30 29 8 14 -89 -63 -217 -131 -247 -131 -5 0
40 53 100 118 140 149 203 225 281 337 35 50 80 108 100 130 20 22 24 30 10
17 -14 -12 -30 -22 -37 -22 -6 0 -23 -21 -38 -46 -15 -25 -37 -50 -50 -54 -64
-25 -319 -81 -352 -78 l-37 4 60 27 c119 54 168 83 248 148 157 125 356 256
428 281 19 6 37 15 40 20 3 5 44 22 90 38 46 17 76 30 65 30 -10 0 -58 -16
-106 -35 -82 -33 -91 -34 -141 -25 -207 39 -364 107 -455 196 -30 29 -54 57
-54 62 0 5 30 1 68 -10 43 -12 106 -19 177 -21 96 -2 132 3 275 35 91 21 188
39 215 41 47 3 47 3 -10 4 -33 0 -116 -12 -185 -28z"/>
<path class="tree" d="M2058 5093 c7 -3 16 -2 19 1 4 3 -2 6 -13 5 -11 0 -14 -3 -6 -6z"/>
<path class="tree" d="M2393 4933 c15 -2 37 -2 50 0 12 2 0 4 -28 4 -27 0 -38 -2 -22 -4z"/>
<path class="tree" d="M2318 4923 c7 -3 16 -2 19 1 4 3 -2 6 -13 5 -11 0 -14 -3 -6 -6z"/>
<path class="tree" d="M2498 4923 c12 -2 30 -2 40 0 9 3 -1 5 -23 4 -22 0 -30 -2 -17 -4z"/>
<path class="tree" d="M2020 4910 c-20 -6 -21 -8 -5 -8 11 0 34 4 50 8 27 7 27 8 5 8 -14 0
-36 -4 -50 -8z"/>
<path class="tree" d="M2573 4913 c9 -2 25 -2 35 0 9 3 1 5 -18 5 -19 0 -27 -2 -17 -5z"/>
<path class="tree" d="M2688 4890 c46 -12 75 -29 103 -56 21 -21 39 -33 39 -27 0 33 -133
105 -189 102 -9 0 13 -9 47 -19z"/>
<path class="tree" d="M1920 4885 c-25 -7 -36 -13 -25 -13 11 0 38 5 60 13 52 17 24 17 -35
0z"/>
<path class="tree" d="M3387 4865 c-27 -7 -52 -17 -55 -21 -4 -4 4 -3 18 1 56 17 187 17
247 0 71 -20 169 -74 203 -110 l25 -27 -55 7 c-69 10 -164 8 -210 -4 l-35 -9
37 -1 c20 -1 72 -16 115 -35 77 -33 188 -69 247 -81 15 -3 26 -8 24 -11 -13
-13 -127 -34 -183 -34 l-64 0 -66 65 c-37 36 -72 65 -78 65 -7 -1 9 -19 35
-41 86 -74 167 -189 307 -437 62 -109 109 -172 200 -265 l66 -69 -35 7 c-96
18 -234 110 -331 218 -26 29 -67 94 -93 145 -71 142 -107 192 -205 284 -130
122 -259 205 -276 178 -3 -6 2 -10 13 -10 34 0 141 -74 245 -172 117 -109 143
-148 257 -383 125 -261 280 -517 388 -642 24 -29 41 -53 38 -53 -4 0 -35 15
-68 33 -93 49 -196 151 -242 238 -44 84 -106 173 -166 239 l-42 45 35 -45
c119 -157 193 -289 241 -431 23 -70 44 -179 34 -179 -3 0 -20 21 -38 48 -18
26 -53 66 -77 89 -42 41 -43 44 -44 110 -1 37 -5 82 -9 98 -5 17 -6 -11 -3
-64 6 -89 5 -94 -13 -87 -17 6 -16 5 3 -16 14 -15 23 -43 28 -83 4 -33 15
-100 26 -149 10 -49 17 -91 16 -93 -4 -4 -23 32 -37 71 -6 16 -13 26 -16 23
-7 -7 43 -153 67 -194 10 -18 15 -33 10 -33 -5 0 -44 31 -87 68 -68 58 -80 73
-86 109 -9 54 -35 104 -58 110 -14 4 -20 23 -29 96 -21 155 -58 284 -115 402
-58 119 -140 248 -178 280 -24 21 -19 13 30 -50 42 -54 144 -238 176 -320 44
-107 95 -383 80 -426 -8 -24 -8 -23 -15 6 -7 30 -7 30 -8 -6 -1 -46 24 -192
50 -289 34 -127 33 -118 8 -90 -12 14 -39 60 -60 103 l-39 77 4 168 c4 152 4
157 -4 64 -24 -261 -77 -479 -145 -592 -52 -86 -115 -174 -120 -168 -2 2 5 30
16 62 59 175 107 512 95 671 -10 136 -25 263 -41 337 -23 113 -144 356 -219
443 -48 55 -45 38 3 -20 44 -54 139 -230 175 -328 14 -35 32 -105 40 -153 17
-102 32 -384 16 -299 -21 108 -43 194 -76 293 -33 99 -79 202 -89 202 -3 0 2
-15 11 -32 29 -56 103 -285 125 -386 12 -57 23 -152 26 -232 6 -154 3 -155
-62 -18 -57 121 -77 216 -73 362 2 71 -1 121 -6 116 -5 -4 -6 -80 -4 -167 4
-126 10 -170 26 -215 26 -71 101 -222 113 -226 5 -2 6 -8 3 -13 -10 -16 -121
138 -165 229 -72 150 -81 185 -74 287 5 72 4 86 -6 71 -8 -14 -12 -85 -13
-228 -1 -114 -2 -208 -3 -208 -9 0 -71 234 -87 332 -12 70 -24 129 -26 132 -3
2 -6 -14 -7 -37 -3 -74 -115 -413 -145 -442 -8 -7 -9 -2 -3 15 12 44 54 221
76 325 11 55 25 161 30 235 4 74 11 164 14 200 3 36 -4 11 -15 -58 -32 -204
-146 -506 -282 -744 -34 -60 -63 -106 -65 -105 -2 2 13 44 33 93 54 135 190
561 182 570 -3 2 -24 -58 -48 -134 -23 -75 -46 -142 -51 -147 -4 -6 -16 -33
-27 -60 -64 -160 -242 -486 -242 -442 0 3 16 40 36 83 58 128 191 520 180 532
-2 2 -36 -95 -75 -214 -40 -119 -79 -229 -87 -243 -15 -25 -15 -25 -8 19 4 25
9 81 13 125 5 71 11 90 56 170 67 121 86 163 162 350 73 181 115 317 131 420
19 120 34 314 28 343 -23 93 -28 105 -37 91 -6 -10 -9 -10 -9 -1 0 6 -5 12
-11 12 -8 0 -8 -4 -1 -13 28 -34 43 -131 37 -242 -12 -212 -44 -341 -151 -608
-81 -202 -121 -281 -250 -494 -26 -45 -39 -41 -15 5 68 135 264 676 295 814
35 160 52 402 29 416 -6 4 -20 23 -32 42 -28 47 -27 34 4 -32 18 -38 25 -70
25 -115 0 -88 -27 -285 -51 -373 -36 -128 -231 -644 -252 -665 -6 -7 -7 -3 -3
11 13 43 46 260 45 294 -1 19 -6 1 -11 -39 -8 -65 -16 -85 -56 -145 -26 -39
-72 -124 -102 -188 -30 -65 -58 -118 -62 -118 -17 0 4 243 32 365 14 61 80
271 109 344 12 29 20 55 18 58 -5 4 -55 -118 -87 -212 -11 -32 -27 -66 -35
-75 -8 -9 -24 -37 -35 -63 -12 -27 -53 -100 -91 -164 -38 -64 -69 -117 -69
-119 0 -9 -63 -105 -66 -101 -3 2 11 42 30 88 94 230 178 490 163 505 -3 3 -8
-10 -12 -28 -3 -18 -18 -69 -32 -113 -20 -63 -36 -91 -73 -130 -26 -28 -64
-77 -85 -110 -21 -33 -46 -71 -55 -85 -9 -14 -27 -52 -40 -85 -46 -114 -37
-22 19 190 52 196 96 317 171 468 28 56 44 94 35 83 -29 -38 -94 -174 -135
-286 -24 -63 -48 -122 -55 -130 -99 -127 -274 -555 -252 -615 3 -7 3 -16 -1
-19 -9 -9 -29 78 -42 175 -21 173 -9 409 31 597 11 52 19 96 16 98 -5 5 -43
-171 -58 -271 -15 -99 -14 -333 1 -442 7 -57 8 -94 0 -127 -6 -26 -8 -52 -5
-57 4 -5 2 -9 -4 -9 -15 0 -30 62 -41 170 -5 52 -12 113 -14 135 -2 22 -3 -12
-1 -75 1 -63 0 -136 -4 -162 -4 -26 -4 -45 1 -42 4 3 8 15 8 27 0 31 13 9 36
-64 10 -32 22 -59 26 -59 4 0 5 19 3 43 -2 23 0 58 4 77 l8 35 11 -40 c7 -22
12 -45 12 -52 0 -6 14 -49 32 -94 35 -88 51 -93 22 -7 -13 38 -19 83 -19 158
0 101 2 110 44 218 38 97 47 112 67 112 47 0 51 -6 41 -68 -14 -93 -17 -103
-26 -98 -5 3 -8 -2 -7 -12 1 -13 -6 -16 -31 -14 -19 2 -33 -1 -33 -7 0 -6 -7
-11 -15 -11 -24 0 -18 -19 10 -32 14 -6 25 -18 25 -26 0 -18 32 -72 42 -72 5
0 -1 18 -12 40 -11 21 -20 43 -20 48 0 7 85 32 111 32 5 0 9 -24 9 -53 0 -70
23 -97 84 -97 58 0 94 29 102 81 7 42 15 47 35 23 7 -8 25 -22 41 -30 25 -13
28 -13 28 0 0 25 20 110 30 125 7 12 11 13 24 1 23 -18 33 -4 13 18 -10 10
-17 26 -17 35 0 23 159 337 171 337 5 0 7 -10 4 -22 -3 -13 -14 -68 -26 -123
-15 -74 -31 -118 -60 -167 -45 -77 -49 -91 -14 -58 14 13 25 21 25 18 0 -19
-74 -186 -94 -213 -27 -35 -31 -45 -18 -45 4 0 27 27 51 61 l43 61 19 -31 c25
-42 24 -64 -7 -117 -29 -48 -21 -58 16 -19 13 14 27 25 31 25 4 0 5 -66 3
-147 -2 -82 0 -179 5 -218 7 -53 9 -14 9 167 l1 237 28 43 c33 49 132 225 158
281 35 75 24 28 -16 -69 -107 -259 -110 -272 -36 -155 l52 82 83 33 c88 36 96
33 67 -25 -23 -43 -26 -100 -6 -97 12 2 15 -5 13 -30 -4 -40 10 -36 53 16 34
41 43 40 51 -2 8 -47 37 -71 86 -71 57 0 98 47 98 110 0 45 0 45 35 45 25 0
37 -6 46 -22 12 -22 12 -22 21 -3 6 14 7 10 3 -15 -3 -19 -14 -47 -25 -62 -12
-16 -16 -28 -10 -28 17 0 50 63 50 96 0 25 5 33 25 38 13 3 30 16 36 28 12 22
8 23 -71 2 -21 -6 -23 -4 -12 7 17 19 15 26 -10 25 -23 -1 -29 13 -42 92 l-6
42 33 0 c29 0 36 -6 57 -42 22 -41 88 -137 100 -148 3 -3 16 -19 28 -37 l22
-32 -21 -98 c-11 -54 -34 -141 -50 -193 -16 -52 -29 -101 -29 -109 0 -24 34
13 91 100 28 44 54 78 56 76 6 -7 -17 -108 -47 -203 -54 -167 -133 -335 -200
-419 -17 -22 -129 -138 -248 -258 -193 -195 -219 -217 -242 -212 -25 6 -344
164 -457 225 -168 93 -251 151 -339 242 -50 51 -101 112 -113 135 -22 45 -62
193 -101 378 l-23 110 -54 45 c-59 49 -70 74 -80 181 -4 52 -2 72 13 100 l18
34 8 -75 c12 -124 57 -277 58 -197 0 20 -4 37 -9 37 -20 0 -35 120 -35 289 -1
160 -12 201 -15 53 -1 -46 -8 -76 -27 -114 -27 -53 -84 -122 -69 -83 45 117
83 259 89 340 l5 60 -10 -55 c-6 -30 -13 -57 -15 -59 -1 -2 -20 11 -41 28 -21
17 -46 31 -55 31 -10 0 -18 -1 -18 -2 0 -2 -14 -36 -30 -77 -17 -40 -33 -98
-37 -128 -5 -44 -11 -57 -32 -70 -14 -9 -39 -24 -54 -35 -28 -19 -28 -19 -46
4 -21 25 -24 16 44 168 110 245 163 408 200 615 9 50 25 118 35 152 25 79 25
103 0 40 -10 -27 -29 -101 -41 -165 -12 -64 -37 -173 -56 -242 l-34 -125 -82
-83 c-96 -98 -164 -149 -179 -134 -6 6 -2 23 15 48 13 22 39 66 57 99 18 33
43 74 55 90 12 17 28 48 35 70 7 22 28 74 47 115 20 41 50 114 68 161 43 110
102 227 156 310 24 35 50 76 57 89 7 14 31 45 53 70 44 49 43 43 -8 -37 -19
-29 -30 -53 -26 -53 4 0 28 33 53 73 73 119 197 236 370 349 92 61 101 70 32
32 -83 -45 -189 -129 -288 -226 -49 -49 -93 -86 -97 -82 -4 4 -1 14 6 23 6 8
-2 5 -20 -7 -46 -32 -213 -199 -213 -213 0 -6 47 37 104 97 57 60 106 107 109
104 3 -3 -31 -52 -74 -110 -76 -102 -183 -292 -214 -382 -9 -23 -46 -115 -83
-202 l-67 -159 -70 -33 c-38 -17 -97 -41 -130 -52 -69 -23 -195 -37 -195 -23
0 5 20 24 45 42 24 17 42 35 40 40 -4 6 54 84 74 99 18 14 152 201 174 245 61
118 250 377 347 475 41 41 61 65 44 53 -17 -13 -56 -49 -85 -81 -63 -68 -239
-306 -278 -374 -46 -83 -41 -52 9 60 99 220 171 335 269 431 60 58 41 48 -35
-19 -36 -32 -95 -116 -149 -215 -21 -38 -48 -78 -59 -88 -12 -10 -15 -15 -7
-11 17 9 20 15 -55 -146 -32 -69 -74 -151 -93 -184 -20 -32 -42 -69 -49 -83
-22 -40 -211 -231 -243 -245 -16 -7 -29 -16 -29 -20 0 -11 33 -10 153 7 103
14 166 34 248 76 23 11 43 18 46 15 3 -3 -8 -27 -24 -53 -17 -26 -43 -72 -59
-100 -26 -48 -44 -66 -44 -45 0 16 -60 42 -98 42 -32 0 -45 -6 -62 -27 -21
-27 -22 -34 -15 -170 l7 -142 -47 -30 c-47 -30 -65 -56 -109 -161 -11 -25 -48
-106 -82 -180 l-63 -135 19 -70 c59 -230 63 -266 57 -489 -5 -188 -4 -218 13
-279 10 -37 22 -109 26 -161 l7 -94 -44 -10 c-91 -20 -514 -161 -506 -168 2
-2 64 17 138 42 141 47 395 124 412 124 6 0 8 -124 5 -358 l-5 -358 -69 -71
c-38 -38 -98 -90 -134 -116 -82 -57 -135 -112 -153 -157 -17 -42 -11 -110 10
-110 10 0 12 6 8 21 -5 15 9 8 55 -29 72 -58 149 -98 275 -142 50 -18 97 -38
106 -46 8 -8 24 -14 35 -14 15 0 13 4 -11 19 -16 10 -54 41 -84 69 l-54 51 7
98 c23 322 33 1059 17 1248 -5 55 -19 133 -31 173 -21 70 -22 79 -10 202 14
158 8 244 -36 468 l-34 173 34 67 c18 37 62 131 96 210 60 135 66 145 104 164
49 25 49 25 58 -4 4 -13 6 6 6 45 -1 64 0 70 30 97 29 26 31 31 26 82 -3 29
-12 72 -20 95 -18 51 -13 63 27 63 21 0 42 -11 70 -37 60 -57 86 -144 99 -329
6 -82 22 -261 36 -399 13 -137 24 -307 24 -377 l0 -126 -52 -18 c-29 -9 -87
-31 -128 -49 -41 -18 -97 -41 -125 -51 -39 -15 -54 -27 -68 -56 -16 -33 -38
-134 -50 -233 -9 -72 10 -5 31 108 11 59 27 118 36 131 9 14 37 31 68 41 29
10 76 29 103 43 100 50 300 112 362 112 37 0 48 -6 83 -41 21 -22 42 -50 46
-62 4 -12 24 -47 44 -78 66 -97 110 -188 110 -227 -1 -35 -1 -36 -15 -17 -35
49 -33 48 -140 42 -102 -6 -103 -6 -127 21 -36 39 -40 68 -17 135 11 33 18 61
15 64 -2 3 -12 -21 -22 -52 -16 -50 -27 -63 -99 -124 -72 -60 -87 -68 -134
-74 -49 -6 -121 -41 -121 -59 0 -4 16 3 35 16 43 30 129 41 476 60 117 7 116
9 169 -222 40 -174 49 -223 43 -238 -3 -7 -25 -29 -49 -49 -36 -30 -47 -35
-59 -25 -12 10 -20 9 -41 -5 -54 -35 -85 -69 -82 -89 4 -31 -26 -31 -40 -1
-22 47 -14 97 24 160 19 33 40 63 46 66 6 4 0 22 -17 47 -23 35 -26 46 -20 89
4 26 16 68 26 92 11 24 18 46 15 48 -2 2 -19 -30 -37 -72 -30 -67 -38 -76 -69
-85 -69 -20 -116 -13 -157 22 l-37 33 21 -31 c12 -17 29 -37 38 -44 34 -28 13
-86 -65 -180 -40 -49 -75 -100 -68 -100 2 0 36 39 74 86 l69 87 3 -37 c2 -22
-10 -74 -32 -138 -20 -56 -34 -103 -32 -105 6 -7 58 141 70 202 l13 60 17 -33
c10 -19 37 -120 62 -225 50 -219 55 -308 29 -514 -14 -112 -19 -125 -79 -248
-36 -72 -79 -154 -96 -184 -17 -29 -26 -51 -20 -49 18 6 167 293 190 367 11
35 20 78 20 97 0 25 4 34 16 34 19 0 265 -132 312 -168 24 -18 32 -32 32 -55
0 -51 -60 -96 -251 -189 -104 -50 -164 -84 -153 -86 11 -2 49 13 83 33 35 19
97 51 139 71 43 20 98 51 125 70 26 19 47 32 47 30 0 -2 -7 -21 -16 -42 -39
-92 -64 -165 -54 -159 5 3 10 13 10 21 0 8 4 14 8 14 4 0 19 33 31 72 13 40
32 90 42 110 23 45 18 76 -19 111 -27 26 -42 34 -232 135 -58 30 -107 57 -109
59 -9 7 23 80 60 134 107 158 137 233 153 384 11 107 12 110 43 130 17 11 34
29 37 41 3 12 -15 104 -40 205 -40 161 -44 188 -34 217 10 28 8 42 -15 101
-25 67 -33 120 -51 374 l-7 87 49 -27 c27 -16 88 -48 137 -73 48 -25 140 -79
205 -121 214 -138 678 -371 877 -440 39 -13 72 -26 75 -29 3 -3 12 -6 20 -6 8
-1 92 -24 185 -52 94 -28 211 -60 261 -72 91 -21 92 -21 110 -63 11 -23 34
-66 52 -95 28 -47 32 -63 32 -123 0 -37 7 -100 15 -140 9 -40 13 -74 11 -76
-5 -5 -64 85 -156 239 -62 102 -67 107 -99 108 -46 0 -173 -62 -190 -94 -9
-15 -12 -42 -9 -71 5 -44 5 -45 -13 -29 -27 24 -55 12 -126 -51 -70 -63 -87
-101 -82 -182 4 -49 3 -51 -27 -62 -17 -6 -36 -11 -43 -11 -19 0 -208 75 -371
147 -80 36 -221 95 -315 133 -93 37 -230 93 -303 124 -74 32 -136 55 -138 53
-3 -2 39 -23 93 -45 54 -23 136 -57 183 -77 47 -20 108 -45 135 -55 28 -9 84
-32 127 -50 l76 -32 -9 -31 c-15 -52 -10 -111 14 -183 20 -64 22 -86 21 -309
0 -174 2 -212 7 -140 4 55 7 165 8 245 1 123 -2 153 -19 198 -21 54 -28 175
-11 200 6 11 35 1 131 -43 68 -31 176 -77 239 -102 64 -25 119 -48 123 -52 5
-4 -8 -38 -28 -75 -35 -64 -36 -72 -30 -133 4 -35 18 -101 32 -145 24 -74 26
-93 22 -219 -1 -75 0 -135 5 -132 4 2 7 54 7 116 0 137 13 132 35 -13 9 -57
18 -106 20 -109 7 -6 6 3 -6 103 -6 52 -27 135 -51 205 -53 153 -61 247 -27
316 13 26 38 63 55 83 32 37 32 37 53 18 12 -11 21 -23 21 -28 0 -14 148 -318
154 -318 4 0 -2 17 -13 38 -10 20 -32 66 -49 102 -117 253 -116 249 -106 329
6 50 12 61 53 101 25 25 60 55 78 68 l32 23 30 -28 c16 -15 48 -71 71 -123 79
-179 124 -275 133 -285 13 -13 13 -13 -87 214 -75 170 -86 202 -86 252 0 51 3
60 30 82 36 31 136 70 159 62 9 -3 29 -26 45 -52 112 -182 145 -234 182 -283
22 -30 46 -66 53 -78 24 -45 21 -14 -5 64 -15 44 -28 105 -29 139 -4 102 -17
179 -35 205 -28 40 -67 122 -75 157 -6 30 -25 47 -25 23 0 -12 -80 -2 -94 11
-9 8 42 95 72 121 16 15 102 38 140 38 10 0 2 -10 -21 -25 -20 -14 -37 -28
-37 -31 0 -2 18 7 39 22 22 14 56 29 76 34 32 7 38 5 59 -23 21 -27 107 -179
153 -269 8 -16 21 -72 28 -125 26 -178 77 -386 119 -485 13 -31 16 -86 18
-315 1 -243 2 -261 9 -143 3 74 7 199 8 278 1 133 -1 147 -25 205 -33 78 -85
267 -73 267 5 0 9 -4 9 -9 0 -4 22 -37 49 -72 57 -74 66 -104 81 -279 6 -69
22 -172 36 -228 l26 -104 -37 -125 c-20 -69 -34 -127 -31 -130 2 -2 19 42 37
99 39 122 41 176 11 308 -11 52 -26 150 -32 217 -12 151 -24 185 -87 265 -28
35 -57 77 -66 94 l-16 32 92 77 c122 102 257 233 257 250 0 21 36 24 67 6 15
-9 44 -23 63 -31 19 -7 172 -80 339 -162 166 -82 305 -147 308 -144 5 4 -578
296 -592 296 -3 0 -39 16 -80 36 -71 36 -73 38 -80 80 -7 48 -54 102 -118 135
-36 19 -37 20 -21 44 19 30 13 66 -20 110 -32 42 -36 67 -24 143 7 44 21 81
39 107 56 81 148 251 154 285 6 32 1 40 -44 91 -43 48 -73 68 -219 143 -124
64 -191 105 -253 157 -46 38 -108 82 -136 96 -35 17 -50 30 -44 37 4 6 16 33
26 60 l19 49 19 -24 20 -24 -9 25 c-11 31 -10 59 7 193 l14 108 25 -27 c29
-31 158 -124 173 -124 5 0 2 10 -7 23 -27 38 -57 97 -48 97 4 0 16 -14 26 -31
29 -50 31 -24 2 40 -38 85 -87 331 -66 331 14 0 98 -109 137 -178 18 -31 33
-49 33 -40 0 35 -42 233 -60 280 -10 26 -16 48 -13 48 3 0 30 -22 60 -49 51
-46 241 -156 251 -146 3 2 -22 33 -55 68 -69 74 -131 161 -220 306 -59 98
-173 312 -173 326 0 3 25 -21 56 -54 93 -101 212 -169 324 -185 l45 -7 -105
109 c-80 82 -120 133 -166 212 -96 165 -173 292 -200 330 l-26 35 79 6 c90 6
173 24 199 43 15 12 10 14 -42 21 -59 7 -168 42 -279 89 l-60 25 65 0 c36 0
94 -4 130 -9 59 -8 94 -4 61 8 -8 2 -30 19 -50 36 -113 100 -305 155 -424 121z
m-550 -347 c-3 -8 -6 -5 -6 6 -1 11 2 17 5 13 3 -3 4 -12 1 -19z m73 -921 c-6
-42 -28 -154 -49 -249 -36 -165 -39 -174 -67 -188 -16 -8 -51 -27 -77 -42 -27
-15 -51 -28 -54 -28 -2 0 11 28 30 63 38 68 147 319 167 382 7 22 16 45 20 50
5 6 13 30 20 54 17 64 22 44 10 -42z m-631 -117 c-15 -65 -39 -250 -39 -297 0
-41 -11 -55 -25 -33 -4 6 -30 22 -58 36 -29 15 -54 28 -56 30 -1 1 26 51 62
111 35 59 75 127 87 151 30 53 41 54 29 2z m734 -120 c14 -58 28 -113 32 -122
5 -13 1 -18 -17 -22 -120 -22 -142 -25 -145 -22 -2 2 16 64 41 138 26 74 46
143 47 154 0 18 1 18 8 -1 5 -11 20 -67 34 -125z m-1064 58 c-10 -34 -23 -86
-29 -114 -10 -49 -13 -52 -45 -56 -19 -2 -35 0 -35 6 0 19 115 226 125 226 2
0 -5 -28 -16 -62z m147 -69 l-43 -114 -34 3 c-18 1 -35 4 -37 6 -5 6 37 85 66
126 31 43 85 101 89 97 1 -2 -17 -55 -41 -118z m-783 54 c-8 -21 -33 -76 -54
-121 -22 -46 -39 -85 -39 -87 0 -1 -16 -38 -36 -81 -39 -86 -48 -86 -59 1 -4
27 -14 65 -21 84 -13 31 -13 36 1 44 35 19 132 107 168 150 46 57 61 60 40 10z
m1842 -155 c6 -15 2 -18 -18 -18 -24 0 -25 3 -29 61 -1 33 -1 63 1 65 2 2 12
-18 21 -44 9 -26 20 -55 25 -64z m-1695 44 c35 -31 41 -42 35 -61 l-7 -23 -25
26 c-14 15 -30 25 -36 23 -16 -5 -46 -94 -45 -132 1 -26 1 -27 5 -5 11 62 36
131 46 127 6 -2 20 -15 31 -30 l20 -27 -24 -82 c-24 -88 -59 -161 -75 -161 -6
0 -19 18 -30 39 -23 46 -26 156 -5 219 18 57 51 125 60 125 4 0 27 -17 50 -38z
m2198 3 c9 -20 9 -25 -3 -25 -8 0 -23 -10 -35 -22 l-20 -22 0 27 c0 31 19 67
36 67 6 0 16 -11 22 -25z m-2739 -34 c7 -16 16 -54 20 -86 7 -51 6 -60 -15
-84 -12 -14 -25 -24 -28 -21 -3 3 -8 42 -12 87 -10 117 8 170 35 104z m2767
-48 c-3 -7 -1 -24 5 -37 8 -17 8 -48 -1 -112 -6 -48 -14 -92 -17 -98 -10 -16
-63 179 -63 232 0 41 20 12 35 -50 8 -32 14 -43 14 -27 1 14 -6 47 -15 73 -14
40 -14 50 -3 57 17 10 52 -19 45 -38z m-1656 -3 c12 -8 11 -10 -5 -9 -11 1
-31 5 -45 9 -24 8 -24 8 5 9 17 0 37 -4 45 -9z m446 -54 c-7 -45 -106 -200
-114 -178 -7 23 41 145 77 193 39 53 46 50 37 -15z m-471 34 l26 -10 -23 -42
c-19 -34 -30 -44 -62 -50 -21 -5 -41 -7 -43 -4 -9 8 49 116 62 116 7 0 26 -5
40 -10z m193 -47 c18 -14 32 -27 29 -29 -2 -2 -31 10 -65 26 -34 17 -67 30
-72 30 -11 0 -13 13 -4 22 8 9 74 -20 112 -49z m887 -13 c16 -39 26 -72 24
-75 -3 -2 -44 -9 -92 -14 -48 -6 -108 -19 -133 -31 -26 -11 -55 -20 -65 -20
-12 0 -16 -5 -13 -15 4 -9 0 -15 -9 -15 -14 0 -14 5 1 39 14 32 25 42 66 56
27 10 88 21 135 25 63 5 74 8 41 10 -70 5 -110 0 -170 -20 -30 -10 -56 -17
-58 -15 -10 10 33 67 60 81 35 18 156 62 174 63 6 1 24 -31 39 -69z m-185 35
c-30 -17 -40 -18 -40 -6 0 10 22 18 50 19 8 1 4 -5 -10 -13z m-748 -33 c87
-40 92 -47 77 -121 -9 -49 -14 -59 -25 -50 -7 6 -12 27 -11 50 2 37 0 41 -38
59 -23 11 -62 20 -88 20 -26 0 -47 3 -47 6 0 14 43 64 55 64 7 0 42 -13 77
-28z m652 -5 c-6 -16 -112 -62 -121 -53 -9 9 114 79 125 71 1 -1 0 -9 -4 -18z
m710 -153 c-7 -61 -18 -131 -26 -155 l-13 -44 -3 55 c-3 46 12 129 45 249 10
38 9 -5 -3 -105z m-1546 89 c-2 -13 -14 -19 -41 -21 -41 -4 -50 13 -14 28 37
15 59 12 55 -7z m161 6 c31 -11 59 -45 46 -57 -3 -4 -9 -2 -13 3 -4 6 -20 11
-37 12 l-30 1 34 -16 c19 -10 46 -33 60 -52 l26 -35 -35 28 c-69 55 -115 70
-194 63 -39 -4 -97 -14 -129 -22 -40 -10 -63 -12 -75 -5 -15 9 -14 10 6 11 13
0 20 4 17 10 -3 6 10 10 32 9 21 0 70 5 108 11 39 6 88 9 110 6 28 -4 34 -3
20 4 -11 5 -35 9 -52 9 -31 1 -41 10 -26 24 10 11 97 8 132 -4z m1453 -114
c-6 -48 -32 -112 -67 -162 -24 -36 -35 -31 -15 7 5 10 14 62 20 116 6 55 14
115 17 134 l5 35 23 -45 c17 -33 21 -55 17 -85z m-1127 73 c-6 -39 -18 -87
-32 -128 -3 -10 -11 -3 -25 23 l-19 39 28 40 c58 84 57 83 48 26z m-1125 -5
c6 -21 19 -54 29 -73 17 -31 17 -36 4 -57 -9 -13 -11 -23 -5 -23 6 0 14 5 17
10 12 19 20 10 60 -65 26 -48 37 -77 30 -83 -6 -6 -59 -36 -120 -67 -60 -31
-120 -66 -133 -78 -14 -13 -26 -17 -32 -11 -5 5 -12 62 -16 126 l-7 117 32 48
c28 41 31 54 26 89 -6 40 -5 41 42 71 26 17 51 32 55 32 4 1 12 -16 18 -36z
m1803 13 c4 -10 -13 -15 -71 -19 -122 -10 -179 -30 -230 -79 -38 -37 -43 -40
-37 -18 4 14 14 29 22 33 7 5 11 12 8 18 -4 5 -1 9 6 9 7 0 31 9 53 19 23 11
81 24 130 30 49 6 91 13 94 16 9 9 20 5 25 -9z m78 -12 c-18 -8 -41 -12 -50
-8 -13 5 -11 8 9 14 14 5 36 8 50 8 23 0 22 -1 -9 -14z m-2027 -10 c22 -21 21
-98 -1 -131 l-18 -27 -6 29 c-9 41 -10 130 -2 138 9 9 9 9 27 -9z m889 -15
c46 -12 53 -27 37 -74 -16 -49 -65 -74 -108 -56 -52 22 -65 96 -23 128 20 15
45 16 94 2z m-593 -39 c0 -22 8 -68 17 -101 14 -51 24 -66 63 -97 42 -33 48
-43 64 -110 10 -40 16 -75 14 -78 -3 -2 -25 14 -50 35 -41 36 -107 138 -167
259 l-21 42 32 45 c18 24 36 44 41 45 4 0 7 -18 7 -40z m1576 25 c16 -40 -34
-115 -76 -115 -37 0 -80 40 -80 75 0 28 4 33 38 42 58 16 112 15 118 -2z m582
-135 c-21 -67 -120 -212 -165 -243 -52 -36 -97 -52 -90 -33 3 8 9 32 13 53 7
42 40 103 55 103 6 0 7 -15 3 -35 -4 -21 -2 -35 4 -35 5 0 12 16 15 36 4 20
15 46 26 58 29 31 91 154 91 180 0 38 12 38 38 -1 24 -35 24 -38 10 -83z
m-195 -116 c-10 -7 -21 -14 -24 -14 -9 0 5 57 22 95 l14 29 3 -48 c2 -37 -1
-51 -15 -62z m215 -11 c26 -15 73 -48 104 -74 88 -73 132 -100 287 -180 163
-84 251 -154 251 -202 0 -33 -87 -203 -143 -277 -59 -80 -128 -157 -282 -315
l-135 -140 -25 28 -26 29 -102 -17 c-56 -9 -110 -19 -120 -22 -10 -3 -39 -36
-64 -75 -51 -79 -47 -78 -165 -43 -41 12 -58 21 -58 33 0 9 14 60 31 112 30
93 31 102 40 380 l10 285 49 125 c27 69 52 137 55 152 5 20 15 28 39 32 49 9
122 71 163 138 20 32 38 58 40 58 3 0 25 -12 51 -27z m-2147 -40 c30 -52 76
-99 108 -113 24 -9 30 -23 59 -145 44 -175 59 -212 109 -270 46 -53 49 -66 10
-40 -14 9 -38 18 -53 21 -15 3 -55 20 -89 39 l-60 33 0 67 c0 61 -3 71 -29 97
-27 27 -34 30 -74 24 -49 -7 -91 -32 -116 -71 l-17 -25 -46 32 c-80 54 -120
95 -122 125 -8 99 -10 95 49 134 53 35 228 128 242 129 3 0 16 -17 29 -37z
m-273 -309 c15 -14 48 -39 73 -55 l46 -31 -9 -41 c-5 -23 -8 -66 -6 -96 l3
-53 -70 -19 c-38 -10 -70 -19 -70 -19 0 0 -1 77 -2 170 -1 94 0 170 3 170 3 0
17 -11 32 -26z m328 -22 c13 -20 15 -40 10 -111 -3 -47 -2 -122 4 -166 5 -44
12 -116 16 -160 l6 -80 -34 50 c-19 28 -48 74 -64 104 -30 56 -72 94 -115 105
-22 5 -27 13 -32 51 -7 47 5 132 23 165 6 10 25 30 43 44 54 41 115 40 143 -2z
m1665 -582 c-7 -73 -20 -143 -36 -190 -14 -40 -25 -81 -25 -91 0 -25 -13 -30
-46 -20 -83 26 -169 54 -172 56 -2 2 15 50 38 107 72 179 80 201 75 206 -5 6
-10 -7 -74 -173 -45 -117 -52 -130 -73 -128 -24 1 -183 57 -206 72 -10 6 50
72 215 239 144 146 243 254 268 295 l40 64 3 -161 c2 -89 -2 -213 -7 -276z
m878 93 c-16 -72 -11 -115 21 -157 49 -65 41 -88 -84 -254 -39 -52 -87 -115
-106 -142 -19 -27 -39 -48 -45 -46 -11 3 -145 243 -145 260 0 6 66 76 148 156
81 80 160 162 176 183 16 20 32 37 36 37 4 0 4 -17 -1 -37z m-2779 -107 c0 -7
9 -25 20 -38 l19 -25 -37 -7 c-20 -3 -59 -6 -87 -6 l-50 0 25 23 c76 69 110
85 110 53z m2871 -243 c-8 9 -11 21 -7 25 4 4 27 -14 52 -40 48 -51 55 -83 29
-134 -15 -31 -143 -160 -267 -268 -88 -77 -80 -83 -98 62 l-11 82 79 98 c43
53 98 125 122 160 l44 62 35 -32 c19 -18 29 -25 22 -15z m-2730 -171 l26 -47
-32 -38 c-50 -58 -69 -152 -40 -206 15 -29 33 -41 56 -37 26 4 74 34 99 61 14
15 34 31 44 37 18 10 19 7 13 -81 -5 -69 -14 -110 -37 -165 -30 -70 -113 -216
-130 -226 -5 -3 -13 -17 -19 -30 -7 -18 -9 5 -8 85 1 74 -4 133 -15 180 -9 39
-29 122 -43 187 -15 64 -39 143 -54 175 -23 47 -27 68 -22 99 7 42 6 41 121
52 8 1 27 -19 41 -46z m133 -210 c6 -10 -34 -50 -76 -77 -42 -26 -36 1 9 47
36 37 57 46 67 30z m-904 -559 c0 -32 -7 -154 -17 -270 -13 -167 -19 -213 -30
-213 -34 0 -189 88 -239 135 -85 80 -76 103 94 238 59 48 123 105 141 127 17
22 36 40 41 40 6 0 10 -26 10 -57z m12 -480 c23 -21 23 -34 1 -26 -18 7 -33
22 -33 36 0 12 12 8 32 -10z"/>
<path class="tree" d="M1436 3145 c-9 -26 -7 -32 5 -12 6 10 9 21 6 23 -2 3 -7 -2 -11 -11z"/>
<path class="tree" d="M2010 2961 c-5 -11 -7 -28 -2 -39 5 -15 12 -18 30 -11 31 12 40 39
17 55 -25 19 -32 18 -45 -5z"/>
<path class="tree" d="M2941 2966 c-10 -12 -8 -19 6 -33 11 -11 17 -26 15 -34 -3 -8 5 -2
17 13 29 36 28 68 -3 68 -13 0 -29 -6 -35 -14z"/>
<path class="tree" d="M3015 2970 c-3 -5 -2 -10 4 -10 5 0 13 5 16 10 3 6 2 10 -4 10 -5 0
-13 -4 -16 -10z"/>
<path class="tree" d="M3626 2522 c173 -120 338 -258 349 -292 3 -11 -14 -62 -44 -129 -53
-118 -98 -190 -276 -441 -42 -59 -43 -61 -10 -25 44 48 188 256 250 360 24 41
56 107 72 145 l27 70 55 -52 c84 -82 26 -7 -71 92 -113 113 -378 320 -411 320
-6 0 21 -22 59 -48z"/>
<path class="tree" d="M3441 2504 c0 -11 3 -14 6 -6 3 7 2 16 -1 19 -3 4 -6 -2 -5 -13z"/>
<path class="tree" d="M3450 2469 c1 -24 38 -185 39 -169 1 20 -28 172 -34 179 -3 2 -5 -2
-5 -10z"/>
<path class="tree" d="M3492 2260 c0 -14 2 -19 5 -12 2 6 2 18 0 25 -3 6 -5 1 -5 -13z"/>
<path class="tree" d="M3302 2260 c3 -8 16 -70 28 -138 13 -67 25 -121 27 -118 7 7 -40 250
-50 261 -7 7 -8 5 -5 -5z"/>
<path class="tree" d="M3502 2205 c0 -16 2 -22 5 -12 2 9 2 23 0 30 -3 6 -5 -1 -5 -18z"/>
<path class="tree" d="M3512 2150 c0 -14 2 -19 5 -12 2 6 2 18 0 25 -3 6 -5 1 -5 -13z"/>
<path class="tree" d="M3522 2100 c0 -14 2 -19 5 -12 2 6 2 18 0 25 -3 6 -5 1 -5 -13z"/>
<path class="tree" d="M3532 2040 c0 -14 2 -19 5 -12 2 6 2 18 0 25 -3 6 -5 1 -5 -13z"/>
<path class="tree" d="M3541 1994 c0 -11 3 -14 6 -6 3 7 2 16 -1 19 -3 4 -6 -2 -5 -13z"/>
<path class="tree" d="M3362 1965 c0 -16 2 -22 5 -12 2 9 2 23 0 30 -3 6 -5 -1 -5 -18z"/>
<path class="tree" d="M3551 1944 c0 -11 3 -14 6 -6 3 7 2 16 -1 19 -3 4 -6 -2 -5 -13z"/>
<path class="tree" d="M3371 1914 c0 -11 3 -14 6 -6 3 7 2 16 -1 19 -3 4 -6 -2 -5 -13z"/>
<path class="tree" d="M3561 1904 c0 -11 3 -14 6 -6 3 7 2 16 -1 19 -3 4 -6 -2 -5 -13z"/>
<path class="tree" d="M3381 1875 c0 -11 6 -47 13 -80 8 -33 14 -51 15 -40 0 11 -6 47 -13
80 -8 33 -14 51 -15 40z"/>
<path class="tree" d="M3412 1710 c0 -14 2 -19 5 -12 2 6 2 18 0 25 -3 6 -5 1 -5 -13z"/>
<path class="tree" d="M1239 2513 l-24 -28 28 24 c25 23 32 31 24 31 -2 0 -14 -12 -28 -27z"/>
<path class="tree" d="M1848 4863 c7 -3 16 -2 19 1 4 3 -2 6 -13 5 -11 0 -14 -3 -6 -6z"/>
<path class="tree" d="M2588 4843 c7 -3 16 -2 19 1 4 3 -2 6 -13 5 -11 0 -14 -3 -6 -6z"/>
<path class="tree" d="M2625 4835 c6 -2 29 -9 52 -15 23 -6 56 -22 73 -37 17 -14 33 -23 36
-20 10 9 -60 55 -101 66 -36 10 -84 14 -60 6z"/>
<path class="tree" d="M2134 4724 c-18 -14 -18 -14 6 -3 31 14 36 19 24 19 -6 0 -19 -7 -30
-16z"/>
<path class="tree" d="M2563 4478 c-52 -49 -130 -144 -189 -233 -50 -74 -56 -85 -51 -85 3
0 33 41 67 90 34 50 100 131 147 180 90 95 103 118 26 48z"/>
<path class="tree" d="M1889 4233 c-13 -16 -12 -17 4 -4 9 7 17 15 17 17 0 8 -8 3 -21 -13z"/>
<path class="tree" d="M1829 4158 c-106 -134 -157 -229 -215 -403 -52 -155 -94 -328 -84
-345 3 -5 14 33 23 85 23 126 107 379 160 474 23 42 70 113 104 159 69 90 78
114 12 30z"/>
<path class="tree" d="M2560 4140 c-12 -16 -19 -30 -16 -30 2 0 14 14 26 30 12 17 19 30 16
30 -2 0 -14 -13 -26 -30z"/>
<path class="tree" d="M1306 3978 c-158 -239 -261 -364 -366 -451 -25 -20 -39 -37 -32 -37
18 0 173 157 243 245 54 69 163 227 231 335 49 79 50 80 44 80 -2 0 -56 -78
-120 -172z"/>
<path class="tree" d="M2300 4130 c-6 -11 -8 -20 -6 -20 3 0 10 9 16 20 6 11 8 20 6 20 -3
0 -10 -9 -16 -20z"/>
<path class="tree" d="M2963 4105 c0 -22 2 -30 4 -17 2 12 2 30 0 40 -3 9 -5 -1 -4 -23z"/>
<path class="tree" d="M2495 4039 c-34 -58 -49 -94 -22 -54 27 40 68 115 63 115 -3 0 -21
-27 -41 -61z"/>
<path class="tree" d="M2953 4010 c0 -25 2 -35 4 -22 2 12 2 32 0 45 -2 12 -4 2 -4 -23z"/>
<path class="tree" d="M2841 3824 c0 -11 3 -14 6 -6 3 7 2 16 -1 19 -3 4 -6 -2 -5 -13z"/>
<path class="tree" d="M2811 3724 c-7 -25 -10 -48 -8 -51 3 -2 10 17 16 43 7 25 10 48 8 51
-3 2 -10 -17 -16 -43z"/>
<path class="tree" d="M1801 3558 c-43 -160 -104 -482 -87 -467 4 4 13 47 21 95 16 105 57
299 86 403 11 40 18 75 16 78 -3 2 -18 -47 -36 -109z"/>
<path class="tree" d="M1570 3446 c-6 -24 -10 -52 -7 -62 3 -14 5 -12 6 7 0 14 6 40 12 58
6 18 9 34 7 37 -3 2 -11 -15 -18 -40z"/>
<path class="tree" d="M1552 3340 c0 -14 2 -19 5 -12 2 6 2 18 0 25 -3 6 -5 1 -5 -13z"/>
<path class="tree" d="M1603 3295 c0 -38 2 -53 4 -32 2 20 2 52 0 70 -2 17 -4 1 -4 -38z"/>
<path class="tree" d="M902 2865 c-1 -27 3 -95 8 -150 9 -94 8 -105 -18 -182 -14 -46 -29
-83 -32 -83 -3 0 -16 16 -29 35 -13 19 -27 35 -32 35 -15 0 -10 -10 26 -54 49
-60 70 -115 95 -244 20 -110 47 -203 33 -118 -8 53 11 45 60 -24 20 -29 37
-49 37 -43 0 18 -61 102 -79 108 -17 5 -19 24 -24 203 -5 198 -21 424 -36 517
l-8 50 -1 -50z m33 -437 c4 -62 5 -126 3 -143 l-4 -30 -8 30 c-4 17 -18 58
-31 93 l-24 63 21 49 c11 28 24 50 28 50 5 0 11 -51 15 -112z"/>
<path class="tree" d="M2015 2821 c-78 -6 -79 -6 -33 -13 50 -8 105 -1 114 13 3 5 4 8 2 7
-2 -1 -39 -4 -83 -7z"/>
<path class="tree" d="M2900 2809 c0 -15 90 -22 136 -9 57 16 52 23 -9 11 -26 -4 -65 -5
-87 -1 -22 4 -40 4 -40 -1z"/>
<path class="tree" d="M2390 2277 c0 -4 9 -16 20 -27 11 -11 20 -16 20 -12 0 5 -9 17 -20
27 -11 10 -20 15 -20 12z"/>
<path class="tree" d="M2552 2273 c-7 -2 -17 -14 -23 -25 -11 -20 -10 -20 20 1 39 28 41 39
3 24z"/>
<path class="tree" d="M2820 2064 c-19 -8 -93 -19 -164 -25 -121 -9 -146 -13 -135 -23 4 -3
160 9 254 20 22 3 51 13 65 24 30 23 26 24 -20 4z"/>
<path class="tree" d="M2178 2039 c24 -9 296 -17 280 -8 -7 4 -77 9 -155 11 -79 2 -135 1
-125 -3z"/>
<path class="tree" d="M1710 1991 c30 -25 150 -96 237 -140 111 -56 81 -33 -51 40 -71 38
-141 78 -155 88 -41 28 -58 35 -31 12z"/>
<path class="tree" d="M2620 1938 c-25 -5 -97 -7 -160 -5 -65 3 -106 1 -95 -3 33 -14 256
-10 295 5 41 16 24 17 -40 3z"/>
<path class="tree" d="M2090 1786 c0 -3 9 -10 20 -16 11 -6 20 -8 20 -6 0 3 -9 10 -20 16
-11 6 -20 8 -20 6z"/>
<path class="tree" d="M2140 1756 c0 -3 14 -12 30 -21 17 -9 30 -13 30 -11 0 3 -13 12 -30
21 -16 9 -30 13 -30 11z"/>
<path class="tree" d="M980 1747 c0 -2 23 -19 52 -36 28 -18 45 -25 38 -16 -13 15 -90 60
-90 52z"/>
<path class="tree" d="M2210 1714 c0 -7 310 -157 315 -153 2 2 -68 39 -156 81 -87 42 -159
74 -159 72z"/>
<path class="tree" d="M1910 1706 c0 -2 14 -14 30 -26 17 -12 30 -19 30 -16 0 2 -13 14 -30
26 -16 12 -30 19 -30 16z"/>
<path class="tree" d="M2014 1630 c248 -209 848 -654 821 -609 -4 6 -51 39 -104 73 -89 58
-234 167 -591 445 -131 101 -188 142 -126 91z"/>
<path class="tree" d="M1740 1616 c0 -2 8 -10 18 -17 15 -13 16 -12 3 4 -13 16 -21 21 -21
13z"/>
<path class="tree" d="M1790 1575 c22 -27 415 -362 490 -418 36 -26 82 -61 102 -77 20 -17
40 -30 45 -30 11 0 -37 39 -127 104 -41 29 -134 105 -206 167 -209 181 -320
274 -304 254z"/>
<path class="tree" d="M2674 1489 c65 -33 120 -58 123 -55 5 4 -224 117 -236 115 -3 0 47
-27 113 -60z"/>
<path class="tree" d="M955 1529 c-4 -6 -5 -12 -2 -15 2 -3 7 2 10 11 7 17 1 20 -8 4z"/>
<path class="tree" d="M2811 1426 c4 -4 158 -75 304 -139 44 -20 94 -38 110 -41 17 -4 23
-3 15 0 -8 4 -76 33 -150 64 -74 32 -166 72 -203 89 -64 29 -86 37 -76 27z"/>
<path class="tree" d="M1530 1292 c0 -4 20 -15 45 -24 56 -21 58 -15 5 12 -43 22 -50 24
-50 12z"/>
<path class="tree" d="M1840 1257 c8 -9 172 -78 177 -74 2 2 -32 19 -74 37 -95 40 -109 45
-103 37z"/>
<path class="tree" d="M60 1185 c-36 -13 -60 -24 -54 -24 13 -1 134 39 134 45 0 7 -12 4
-80 -21z"/>
<path class="tree" d="M2030 1177 c0 -7 172 -69 177 -64 2 2 -31 16 -72 31 -42 15 -83 30
-91 33 -7 3 -14 3 -14 0z"/>
<path class="tree" d="M2265 1084 c28 -13 57 -24 65 -23 8 0 -12 11 -44 24 -75 31 -87 31
-21 -1z"/>
<path class="tree" d="M2395 1035 c58 -27 248 -95 253 -90 3 3 3 5 0 5 -2 0 -64 23 -137 50
-130 49 -176 63 -116 35z"/>
<path class="tree" d="M2670 930 c8 -5 20 -10 25 -10 6 0 3 5 -5 10 -8 5 -19 10 -25 10 -5
0 -3 -5 5 -10z"/>
<path class="tree" d="M3874 770 c3 -14 17 -73 31 -131 30 -129 31 -167 4 -305 -11 -58 -18
-108 -16 -110 4 -4 29 112 47 222 9 55 7 73 -24 199 -19 75 -38 140 -41 144
-4 3 -4 -5 -1 -19z"/>
<path class="tree" d="M3806 705 c4 -16 13 -48 21 -70 28 -81 28 -205 -2 -355 -3 -14 2 -5
11 20 8 25 18 92 21 151 5 91 3 116 -17 185 -23 77 -49 131 -34 69z"/>
<path class="tree" d="M3570 682 c0 -4 16 -31 36 -61 20 -29 47 -79 61 -110 23 -52 25 -64
19 -158 -5 -93 -28 -273 -42 -333 -3 -16 -2 -21 4 -15 5 6 19 80 30 165 38
278 38 271 8 337 -24 51 -105 183 -113 183 -2 0 -3 -3 -3 -8z"/>
<path class="tree" d="M70 586 c0 -3 46 -19 103 -36 56 -17 124 -40 151 -51 27 -10 51 -18
53 -15 4 4 -91 46 -104 46 -4 0 -51 14 -103 30 -104 33 -100 32 -100 26z"/>
<path class="tree" d="M3545 503 c22 -42 25 -60 25 -153 0 -58 -7 -145 -16 -193 -8 -49 -13
-94 -11 -100 2 -7 11 42 21 108 9 66 21 142 27 168 15 81 11 112 -22 166 -40
64 -58 67 -24 4z"/>
<path class="tree" d="M4894 468 c-4 -7 -15 -24 -23 -38 -10 -15 -11 -21 -3 -16 13 7 46 66
38 66 -3 0 -8 -6 -12 -12z"/>
<path class="tree" d="M4808 333 c-62 -94 -83 -130 -71 -118 19 18 127 185 120 185 -2 0
-24 -30 -49 -67z"/>
<path class="tree" d="M3292 343 c33 -36 44 -59 53 -111 4 -24 9 -41 12 -39 2 3 -1 32 -8
66 -8 40 -20 69 -37 86 -34 34 -52 32 -20 -2z"/>
<path class="tree" d="M3811 234 c0 -11 3 -14 6 -6 3 7 2 16 -1 19 -3 4 -6 -2 -5 -13z"/>
<path class="tree" d="M3015 183 c22 -72 44 -130 44 -115 1 21 -43 162 -50 162 -5 0 -2 -21
6 -47z"/>
<path class="tree" d="M3881 194 c0 -11 3 -14 6 -6 3 7 2 16 -1 19 -3 4 -6 -2 -5 -13z"/>
<path class="tree" d="M352 175 c0 -16 2 -22 5 -12 2 9 2 23 0 30 -3 6 -5 -1 -5 -18z"/>
<path class="tree" d="M4688 153 c-54 -82 -60 -93 -55 -93 4 0 18 20 71 103 10 15 16 27 13
27 -2 0 -15 -17 -29 -37z"/>
<path class="tree" d="M3871 154 c0 -11 3 -14 6 -6 3 7 2 16 -1 19 -3 4 -6 -2 -5 -13z"/>
<path class="tree" d="M4243 113 c-46 -20 -81 -38 -79 -41 4 -4 37 9 141 58 73 34 21 20
-62 -17z"/>
<path class="tree" d="M382 120 c0 -14 2 -19 5 -12 2 6 2 18 0 25 -3 6 -5 1 -5 -13z"/>
<path class="tree" d="M3861 114 c0 -11 3 -14 6 -6 3 7 2 16 -1 19 -3 4 -6 -2 -5 -13z"/>
<path class="tree" d="M1945 64 c58 -22 226 -64 250 -63 11 0 -14 9 -55 18 -41 10 -106 28
-144 40 -77 24 -112 27 -51 5z"/>
<path class="tree" d="M2366 44 c-4 -20 -5 -38 -2 -41 2 -3 8 11 12 31 3 21 4 39 1 42 -2 3
-8 -11 -11 -32z"/>
<path class="tree" d="M4610 30 c-6 -11 -8 -20 -6 -20 3 0 10 9 16 20 6 11 8 20 6 20 -3 0
-10 -9 -16 -20z"/>
<path class="tree" d="M3531 24 c0 -11 3 -14 6 -6 3 7 2 16 -1 19 -3 4 -6 -2 -5 -13z"/>
</g>
</svg>
