<?xml version="1.0" standalone="no"?>
<!DOCTYPE svg PUBLIC "-//W3C//DTD SVG 20010904//EN"
 "http://www.w3.org/TR/2001/REC-SVG-20010904/DTD/svg10.dtd">
<svg version="1.0" id="Image_1" xmlns="http://www.w3.org/2000/svg"
 width="1081.000000pt" height="1350.000000pt" viewBox="0 0 1081.000000 1350.000000"
 preserveAspectRatio="xMidYMid meet">

<g transform="translate(0.000000,1350.000000) scale(0.100000,-0.100000)"
fill="#000000" stroke="none">
<path class="tree" d="M5154 13462 c21 -58 54 -121 94 -177 43 -60 173 -215 196 -234 9 -7
16 -17 16 -21 0 -4 -55 -10 -122 -13 -303 -14 -1046 -192 -1738 -416 -308 -99
-348 -107 -483 -92 -60 6 -159 25 -220 41 -232 60 -317 106 -353 195 -11 25
-25 45 -31 45 -16 0 -16 -15 2 -65 8 -22 15 -60 15 -85 0 -25 7 -70 16 -100 9
-30 16 -79 15 -108 -4 -153 146 -287 428 -381 107 -36 301 -77 414 -87 42 -4
77 -10 77 -14 0 -4 -37 -30 -82 -58 -111 -67 -253 -188 -376 -317 l-101 -107
-190 4 c-140 2 -191 0 -191 -9 0 -13 164 -95 228 -114 23 -7 42 -14 42 -16 0
-3 -22 -30 -49 -61 -85 -100 -148 -205 -255 -428 -169 -350 -177 -360 -358
-432 -190 -75 -430 -121 -564 -107 -74 8 -81 0 -31 -44 103 -93 213 -130 409
-138 76 -3 135 -9 133 -13 -9 -14 -234 -150 -299 -181 -36 -17 -95 -36 -132
-42 -57 -10 -72 -9 -112 7 -55 21 -102 31 -102 22 0 -26 35 -78 71 -108 114
-91 186 -113 364 -112 115 1 138 4 200 27 38 14 71 25 72 23 2 -2 -25 -47 -61
-100 -171 -255 -278 -578 -278 -831 0 -242 104 -482 278 -644 145 -136 249
-181 471 -202 60 -5 133 -18 164 -29 71 -24 203 -37 213 -21 5 7 -15 36 -46
69 -29 32 -66 83 -83 113 -27 49 -30 63 -30 144 0 77 5 101 31 166 38 94 94
180 159 243 55 53 235 176 258 176 12 0 14 -158 13 -1147 -1 -1271 -4 -1205
66 -1513 63 -280 189 -591 426 -1045 74 -143 191 -375 259 -515 218 -451 265
-522 365 -556 80 -26 313 -15 613 30 269 40 614 102 653 117 95 36 176 -122
188 -366 8 -155 32 -257 78 -333 84 -141 159 -324 139 -342 -4 -3 -79 -19
-167 -34 -178 -32 -417 -85 -646 -146 -492 -131 -1084 -379 -1390 -583 -177
-118 -330 -247 -330 -278 0 -11 31 -115 69 -232 127 -385 226 -766 256 -978
l7 -45 -119 -87 c-65 -47 -134 -99 -152 -115 -34 -29 -35 -31 -24 -73 6 -24
33 -132 61 -240 47 -184 50 -201 42 -260 -13 -89 -13 -89 18 -89 22 0 36 12
72 62 83 116 219 293 254 333 20 22 57 65 84 95 125 143 357 364 507 480 88
68 248 196 355 284 230 188 316 253 439 331 50 32 91 64 91 71 0 20 -14 17
-73 -12 -149 -75 -328 -210 -647 -489 -63 -55 -168 -140 -233 -188 -105 -79
-171 -133 -312 -261 -22 -20 -43 -36 -47 -36 -5 0 -8 -6 -8 -13 0 -8 -9 -22
-20 -32 -16 -14 -53 -21 -182 -31 -90 -7 -166 -13 -170 -14 -5 0 -8 -7 -8 -15
0 -19 16 -19 170 4 122 19 170 14 117 -10 -15 -7 -27 -18 -27 -25 0 -8 -13
-23 -30 -36 -16 -12 -30 -27 -30 -33 0 -31 -46 -52 -139 -63 -88 -11 -123 -23
-108 -38 3 -3 43 1 87 10 45 10 85 15 88 12 3 -3 -3 -15 -13 -26 -13 -15 -31
-20 -65 -20 -26 0 -66 -7 -89 -15 -48 -17 -53 -12 -69 70 -6 28 -22 88 -36
135 -14 47 -26 88 -26 92 0 4 37 31 83 61 82 53 270 200 335 260 32 31 42 57
21 57 -6 0 -40 -22 -75 -50 -35 -27 -67 -50 -71 -50 -5 0 -23 90 -41 200 -47
289 -157 701 -247 929 -32 82 -31 95 3 116 15 10 69 49 119 87 148 111 254
173 493 290 413 202 729 316 1213 438 536 136 956 210 1482 262 188 19 770 15
1010 -6 361 -32 673 -78 1015 -151 211 -45 412 -97 442 -115 10 -6 26 -10 35
-10 10 0 65 -13 123 -29 254 -72 469 -111 734 -137 172 -16 384 -14 456 5 19
5 47 12 63 15 25 6 27 10 26 54 -2 44 -2 45 -8 12 -6 -33 -8 -35 -50 -38 l-44
-3 7 91 c7 97 -1 210 -15 210 -10 0 -13 -14 -31 -135 -11 -79 -15 -90 -33 -90
-18 0 -20 5 -16 73 2 42 -1 72 -7 72 -10 0 -22 -56 -22 -107 0 -24 -5 -33 -16
-33 -13 0 -15 7 -11 28 13 66 29 204 23 209 -10 11 -24 -42 -35 -137 -7 -52
-14 -96 -16 -99 -14 -13 -15 15 -6 84 13 93 14 155 2 155 -5 0 -12 -28 -15
-62 -15 -147 -19 -168 -25 -163 -4 2 1 64 10 137 22 166 23 188 5 188 -14 0
-36 -133 -36 -222 0 -41 -2 -46 -20 -41 -15 4 -20 0 -20 -16 0 -15 5 -21 18
-19 9 2 17 -3 17 -11 0 -16 -53 -23 -72 -9 -7 5 -14 5 -18 -2 -3 -6 -12 -7
-18 -3 -7 5 -39 8 -72 9 -33 0 -68 5 -78 10 -10 6 -31 8 -48 6 -23 -3 -29 -9
-29 -29 0 -25 2 -25 50 -21 31 3 51 1 53 -6 3 -7 10 -6 21 3 14 11 19 12 25 2
5 -8 28 -11 69 -8 34 2 66 -1 71 -6 7 -7 15 -6 25 2 11 9 16 9 21 1 4 -7 21
-10 37 -8 16 3 31 1 34 -4 3 -5 12 -3 21 3 12 10 16 10 23 -1 5 -9 5 -19 -1
-26 -7 -8 -6 -14 1 -19 9 -6 13 1 26 43 5 17 33 15 40 -2 12 -30 -15 -56 -56
-56 -33 0 -40 3 -40 20 0 26 -17 26 -25 -1 -6 -17 -14 -20 -48 -17 -33 2 -42
7 -41 21 2 22 -15 22 -31 1 -10 -14 -17 -15 -48 -5 -20 7 -63 14 -94 16 -69 4
-208 15 -243 20 -14 2 -38 4 -53 4 -20 1 -30 7 -34 21 -6 23 -23 27 -23 5 0
-8 -4 -15 -9 -15 -5 0 -14 7 -21 15 -7 8 -27 15 -44 15 -17 0 -55 3 -85 7 -42
5 -55 10 -59 26 -5 19 -6 19 -18 3 -11 -15 -16 -16 -36 -5 -13 7 -38 14 -57
16 -51 3 -60 9 -54 34 4 16 2 20 -8 17 -8 -3 -13 -12 -11 -22 4 -23 -25 -20
-39 5 -7 14 -17 19 -30 16 -10 -3 -22 -1 -25 4 -3 5 -15 7 -27 4 -12 -3 -56 4
-97 15 -41 11 -93 25 -115 31 -22 6 -44 14 -48 18 -10 10 -11 296 -2 327 4 12
2 25 -4 28 -16 10 -14 113 3 119 33 13 448 19 571 8 339 -30 687 -111 1018
-237 49 -19 91 -34 93 -34 2 0 4 17 4 38 l0 38 -132 47 c-434 152 -942 232
-1321 207 -129 -8 -220 -2 -236 16 -10 11 5 738 19 914 35 444 34 439 88 572
27 67 63 124 160 255 69 92 222 315 341 495 255 387 272 414 286 452 8 24 30
40 113 82 85 44 168 95 257 159 26 18 29 -5 11 -102 -28 -163 -95 -332 -185
-471 -44 -67 -50 -89 -26 -98 26 -10 134 37 209 90 39 29 100 69 136 90 91 55
187 123 238 169 31 29 42 47 42 68 0 16 -1 29 -3 29 -1 0 -31 -28 -67 -62 -76
-72 -161 -140 -167 -135 -2 3 16 33 40 68 107 153 154 293 173 512 6 68 4 77
-9 71 -10 -4 -18 -23 -22 -52 -26 -219 -121 -443 -252 -597 -77 -90 -261 -225
-292 -213 -5 2 16 37 46 78 66 90 144 247 173 350 12 42 23 114 25 163 l3 89
64 52 c141 117 292 308 286 362 -3 29 -3 28 -39 -22 -151 -210 -372 -395 -692
-578 -133 -76 -197 -102 -207 -85 -5 7 -19 8 -49 0 -22 -6 -60 -16 -83 -22
-30 -8 -38 -13 -27 -20 11 -7 11 -9 -3 -9 -9 0 -20 9 -23 20 -5 15 -15 20 -41
20 -39 0 -45 16 -11 29 47 18 161 33 165 22 2 -6 14 -8 29 -5 16 4 28 2 33 -7
20 -31 201 134 286 260 64 97 144 261 187 388 68 197 90 313 90 466 1 70 2
127 4 127 1 0 58 -56 126 -125 108 -109 157 -146 157 -117 0 4 -34 41 -76 82
-225 221 -401 465 -550 763 -79 158 -107 233 -68 182 8 -11 41 -63 71 -115
145 -246 300 -447 508 -658 130 -132 165 -160 165 -131 0 7 -46 60 -102 118
-303 314 -668 874 -806 1236 -63 167 -76 236 -76 403 0 182 -14 199 -39 50
-59 -345 -261 -776 -530 -1133 -213 -281 -442 -491 -662 -604 -84 -44 -121
-71 -77 -58 12 4 31 10 42 13 19 6 18 1 -11 -67 -47 -113 -168 -287 -267 -386
-137 -136 -334 -277 -461 -328 -67 -27 -141 -46 -141 -36 0 3 42 27 93 53 244
121 473 340 586 558 41 80 121 281 121 304 0 4 -7 6 -16 4 -9 -2 -31 -41 -53
-93 -77 -184 -133 -277 -236 -395 -200 -230 -495 -408 -820 -496 -115 -31
-291 -50 -331 -37 -29 10 -28 10 56 53 308 155 497 364 561 619 l21 85 109
104 c60 57 109 110 109 118 0 21 -24 17 -46 -7 -45 -52 -236 -207 -324 -265
-102 -67 -362 -204 -386 -204 -9 0 11 31 49 74 83 94 115 142 166 243 83 166
119 323 122 538 1 93 -3 125 -26 205 -22 79 -28 121 -32 255 -6 181 3 257 49
418 17 59 28 110 25 113 -12 13 -26 -9 -52 -79 -27 -76 -38 -97 -97 -199 -95
-162 -151 -372 -152 -570 -1 -71 -4 -128 -7 -128 -13 0 -52 97 -74 186 -36
141 -46 223 -52 449 -8 312 12 420 190 1005 79 257 107 335 152 420 30 58 55
113 55 123 0 27 -19 20 -38 -14 -124 -224 -269 -434 -455 -659 -169 -203 -454
-500 -481 -500 -4 0 36 53 89 117 52 64 95 121 95 125 0 21 -26 0 -111 -94
-202 -224 -321 -346 -494 -507 -195 -184 -257 -236 -433 -369 -64 -48 -136
-105 -161 -127 -76 -67 -83 -71 -75 -49 9 23 69 131 153 272 61 104 69 122 52
122 -37 0 -280 -449 -363 -670 -57 -149 -105 -348 -114 -462 -4 -54 -10 -98
-13 -98 -12 0 -92 129 -127 206 -50 108 -74 210 -74 318 l0 92 51 49 c82 80
279 303 345 390 80 106 164 231 164 245 0 30 -35 -5 -117 -116 -228 -305 -584
-664 -802 -807 -130 -86 -498 -277 -533 -277 -6 0 2 16 17 36 102 134 182 285
219 414 28 99 56 256 56 313 0 65 -23 38 -46 -55 -12 -47 -24 -90 -28 -96 -9
-14 -129 -82 -145 -82 -6 0 13 36 43 79 128 187 246 471 196 471 -5 0 -10 -7
-10 -15 0 -8 -5 -15 -11 -15 -7 0 -8 7 -4 18 15 33 17 185 5 275 -6 51 -22
140 -36 198 -61 269 -82 486 -64 664 19 195 73 433 110 486 22 30 37 89 24 89
-5 0 -16 -11 -24 -23 -8 -13 -51 -55 -95 -94 -144 -125 -234 -242 -318 -409
-100 -196 -143 -383 -134 -579 6 -137 23 -208 66 -277 26 -41 28 -48 13 -48
-35 0 -121 52 -167 101 -121 129 -178 395 -152 702 8 84 7 96 -6 91 -21 -8
-26 -45 -33 -244 -6 -168 3 -261 31 -332 6 -15 -7 -25 -71 -54 -266 -123 -366
-187 -479 -305 -122 -128 -185 -265 -185 -402 0 -98 21 -156 81 -221 27 -30
49 -57 49 -60 0 -16 -49 -3 -125 33 -138 64 -269 206 -362 390 -115 228 -167
594 -126 889 5 35 3 44 -8 40 -18 -6 -25 -45 -39 -205 -17 -188 10 -435 66
-608 58 -178 189 -374 314 -468 19 -14 31 -29 28 -33 -4 -3 -59 6 -123 21
-107 25 -121 31 -173 74 -129 107 -228 239 -274 364 -30 82 -47 59 -19 -25 23
-70 78 -159 141 -231 59 -66 30 -59 -39 11 -175 176 -269 465 -226 697 58 319
197 644 384 900 117 161 154 235 117 235 -8 0 -18 -9 -21 -20 -4 -12 -40 -65
-80 -119 -72 -96 -75 -99 -137 -119 -205 -65 -376 -64 -527 3 -96 44 -93 50
24 50 l103 0 104 52 c56 29 164 98 238 153 74 55 138 100 142 100 4 0 27 15
51 33 23 17 61 41 85 51 23 10 42 25 42 33 0 20 -27 10 -140 -50 l-95 -51
-105 0 c-156 1 -367 45 -425 88 -18 14 -11 15 76 16 255 1 520 97 680 247 43
41 79 80 79 86 0 5 -9 2 -20 -8 -34 -31 -33 -10 3 56 19 35 69 138 111 229 74
159 150 280 245 391 l39 46 91 -23 c368 -93 851 -74 1216 48 151 51 301 134
478 266 124 93 171 136 166 150 -3 8 -35 -11 -84 -49 -202 -155 -419 -274
-590 -324 -126 -36 -343 -72 -527 -86 -246 -19 -560 11 -778 75 -88 25 -186
64 -179 70 2 2 60 -1 129 -8 152 -13 478 -5 670 18 174 21 415 75 588 132 161
53 380 158 507 243 130 87 309 233 314 255 3 19 3 19 -25 1 -16 -10 -58 -42
-94 -70 -320 -256 -778 -435 -1305 -509 -136 -19 -447 -46 -457 -40 -9 6 124
134 234 226 105 88 244 191 340 250 79 48 316 170 386 198 31 12 45 40 20 40
-7 0 -78 -30 -159 -66 l-148 -65 -139 21 c-387 58 -636 164 -827 354 -68 68
-105 126 -121 191 l-7 29 39 -31 c53 -41 84 -56 184 -88 290 -91 680 -108
1070 -45 69 12 142 23 163 27 24 4 37 11 37 21 0 17 -65 14 -285 -12 -163 -20
-375 -31 -375 -20 0 5 141 44 313 86 171 43 443 111 602 153 549 142 917 225
1064 241 35 3 78 10 94 15 27 7 37 3 91 -40 138 -108 218 -147 379 -183 80
-17 112 -19 247 -14 182 8 230 14 230 30 0 8 -55 12 -202 11 -235 0 -297 12
-453 89 -210 104 -365 280 -448 511 -37 104 -38 105 -53 105 -8 0 -14 -4 -14
-8 0 -11 44 -138 65 -186 9 -21 14 -40 12 -43 -13 -12 -127 191 -127 225 0 6
-11 12 -25 12 -24 0 -24 -1 -11 -38z m-2364 -1209 c169 -114 457 -206 688
-219 127 -7 134 -10 94 -35 -31 -20 -34 -21 -134 -4 -458 74 -740 204 -832
382 -31 61 -16 56 62 -18 42 -42 97 -89 122 -106z m1395 -2300 c-79 -193 -100
-307 -100 -548 1 -192 2 -205 33 -329 18 -71 30 -131 27 -134 -2 -3 -62 54
-132 125 -71 72 -152 151 -181 175 l-53 45 36 103 c65 189 159 351 290 503 65
74 95 97 80 60z m2976 -275 c-104 -303 -201 -662 -201 -745 0 -52 -15 -61 -61
-37 -27 14 -47 15 -114 9 -132 -11 -148 -13 -195 -24 -25 -5 -85 -17 -135 -26
-49 -9 -103 -21 -118 -27 -48 -19 -55 5 -11 38 335 258 594 527 794 827 36 53
68 97 72 97 4 0 -10 -51 -31 -112z m-3371 -433 c0 -8 -4 -15 -10 -15 -5 0 -10
7 -10 15 0 8 5 15 10 15 6 0 10 -7 10 -15z m33 -39 c5 -13 -19 -26 -50 -26
-21 0 -15 20 10 30 31 12 34 12 40 -4z m64 -72 c2 -7 -15 -13 -44 -17 -46 -5
-62 2 -63 28 0 14 102 3 107 -11z m-87 -86 c80 -180 221 -341 354 -404 38 -19
50 -42 44 -90 l-3 -29 -35 39 c-42 46 -183 142 -225 152 -26 6 -28 5 -17 -8 7
-9 26 -21 42 -28 19 -8 30 -20 30 -32 0 -14 5 -18 15 -14 11 4 15 -1 15 -19 0
-16 6 -25 15 -25 9 0 18 -7 21 -15 9 -22 20 -18 29 8 7 19 9 18 12 -13 5 -41
23 -66 23 -32 0 46 19 19 25 -35 9 -80 17 -96 24 -48 10 71 25 17 22 -82 -1
-57 -19 -55 -51 3 -48 91 -53 95 -200 152 -105 42 -172 53 -313 55 -152 2
-170 -2 -191 -50 l-16 -38 3 35 c2 19 7 43 12 53 5 12 3 17 -8 17 -9 0 -18 -8
-21 -17 -8 -25 -26 -191 -26 -237 0 -65 14 -30 26 62 l11 87 2 -160 c1 -88 6
-200 11 -248 21 -202 126 -323 323 -373 60 -16 191 -15 217 1 22 14 -4 25 -59
25 -120 0 -278 57 -346 125 -50 51 -43 62 12 20 58 -44 153 -90 214 -104 25
-6 53 -13 62 -17 9 -3 17 -2 17 4 0 5 -35 22 -77 37 -162 56 -249 122 -284
215 -24 60 -43 292 -31 364 13 76 76 93 270 73 66 -7 96 -7 104 1 7 7 -3 12
-36 17 -26 4 -50 5 -53 1 -3 -3 -11 1 -17 9 -15 19 -178 6 -226 -18 -42 -21
-42 -21 -38 5 4 30 64 48 168 52 85 3 113 0 106 -13 -2 -3 19 -7 48 -9 28 -1
53 -7 54 -12 2 -6 12 -10 22 -10 30 0 32 -15 9 -67 -41 -96 -61 -260 -38 -320
14 -37 58 -83 81 -83 24 0 23 17 -6 50 -33 40 -43 175 -16 240 10 25 21 57 24
73 7 30 35 67 51 67 17 0 71 -48 63 -56 -5 -4 -17 1 -28 11 -11 10 -20 13 -20
8 0 -6 12 -19 28 -28 15 -10 39 -29 55 -43 23 -22 27 -23 27 -8 0 9 5 14 10
11 6 -4 8 -16 5 -26 -4 -11 -1 -26 5 -34 8 -9 10 -28 6 -49 -8 -43 -73 -143
-116 -179 -38 -33 -33 -46 12 -29 18 6 33 10 35 9 6 -7 -112 -170 -134 -184
-22 -15 -32 -43 -14 -43 32 0 145 45 186 75 33 23 51 31 53 22 5 -26 -81 -254
-136 -361 -35 -66 -78 -132 -111 -168 -67 -73 -65 -94 6 -73 90 28 96 29 87
14 -5 -8 -37 -57 -72 -109 -65 -100 -70 -110 -49 -110 16 0 83 88 140 184 36
60 47 71 91 89 62 26 211 103 247 128 15 10 64 35 110 54 95 40 227 114 279
156 19 16 37 29 41 29 3 0 9 -33 12 -73 11 -149 90 -319 199 -431 75 -77 81
-72 96 91 14 142 62 336 126 508 43 115 48 123 113 184 37 35 115 98 172 140
112 82 241 179 281 211 22 18 172 59 440 123 280 65 575 157 659 203 24 13 45
24 47 24 2 0 4 -64 4 -142 0 -222 32 -397 96 -534 30 -63 89 -134 113 -134 4
0 11 60 14 133 9 187 43 365 96 508 43 113 47 106 46 -88 0 -162 3 -188 28
-283 45 -174 35 -406 -26 -585 -62 -181 -150 -327 -279 -460 -43 -45 -78 -85
-78 -89 0 -12 38 -5 121 23 170 57 318 132 427 214 29 22 55 37 59 33 8 -8
-29 -91 -86 -190 -54 -93 -153 -202 -261 -289 -80 -64 -308 -207 -329 -207 -7
0 -11 -7 -9 -16 4 -24 101 -53 178 -53 88 -1 167 13 312 55 68 19 179 44 248
54 69 10 155 30 191 43 78 30 225 119 291 176 43 39 68 51 68 34 0 -11 -68
-190 -87 -231 -23 -49 -8 -56 68 -32 57 17 74 29 135 92 39 40 116 132 173
205 56 73 119 145 139 162 104 82 337 206 468 250 79 26 235 61 274 61 34 0
131 -46 171 -82 71 -62 142 -179 190 -309 29 -79 31 -90 26 -189 -4 -82 -13
-131 -41 -223 -80 -261 -173 -381 -481 -622 -77 -60 -214 -168 -305 -241 -178
-142 -374 -276 -436 -298 -22 -7 -67 -16 -101 -20 -62 -7 -63 -7 -63 18 0 14
4 35 9 48 4 13 11 42 15 65 5 35 2 46 -20 72 -30 37 -80 49 -121 29 -41 -19
-91 -100 -99 -159 -4 -27 -10 -52 -14 -54 -5 -3 -36 26 -70 65 -75 84 -109 99
-175 77 -86 -30 -146 -94 -295 -317 -171 -255 -221 -305 -442 -437 -256 -154
-576 -295 -983 -433 -242 -82 -342 -110 -595 -169 -493 -115 -993 -175 -1111
-133 -93 33 -131 97 -476 797 -44 88 -132 264 -196 390 -184 361 -277 619
-352 976 -72 348 -80 513 -66 1354 16 900 23 1250 24 1251 28 17 144 74 149
74 4 0 8 -6 8 -13 0 -29 61 -134 102 -175 73 -74 198 -132 254 -118 30 8 31
27 3 52 -49 43 -89 195 -89 333 0 50 4 91 9 91 4 0 23 -33 41 -72z m110 47
c-2 -8 -68 -34 -87 -35 -2 0 -3 6 -3 13 0 8 17 18 38 24 43 12 54 11 52 -2z
m30 -23 c0 -5 -10 -14 -22 -21 -23 -11 -23 -11 2 -5 39 11 53 10 57 -3 3 -7
-13 -16 -39 -23 -24 -6 -51 -13 -60 -16 -21 -6 -26 22 -5 29 6 2 1 2 -11 0
-36 -6 -22 18 19 33 41 15 59 17 59 6z m80 -79 c0 -10 -6 -13 -16 -9 -9 3 -24
6 -35 6 -26 0 -24 19 4 29 25 10 47 -3 47 -26z m48 -38 c12 -14 22 -29 22 -33
0 -10 -140 -56 -147 -49 -11 11 9 26 57 42 47 16 73 43 30 32 -26 -7 -35 9
-13 22 25 15 27 14 51 -14z m-108 -14 c0 -5 -11 -11 -25 -13 -28 -6 -35 8 -7
15 28 8 32 7 32 -2z m5820 -36 c0 -8 -9 -15 -19 -15 -11 0 -21 -4 -23 -10 -1
-5 -22 -12 -45 -16 -35 -5 -43 -4 -43 9 0 11 14 18 45 23 25 3 45 10 45 15 0
5 9 9 20 9 11 0 20 -7 20 -15z m-5628 -37 c8 -13 17 -42 20 -65 5 -38 4 -43
-13 -43 -10 0 -18 3 -18 8 5 31 -2 34 -52 28 -61 -8 -58 3 9 39 58 30 48 31
-43 5 -45 -13 -73 -16 -79 -10 -13 13 -11 13 59 37 81 27 100 27 117 1z m2603
-26 c-93 -52 -286 -177 -428 -277 -26 -19 -54 -32 -62 -29 -7 3 -23 0 -35 -6
-12 -6 -25 -9 -28 -5 -9 8 19 25 42 25 30 0 371 257 356 268 -3 2 13 10 35 17
23 8 42 10 45 5 3 -5 19 0 35 10 17 11 44 20 60 20 29 0 28 -2 -20 -28z m123
19 c9 -5 29 -14 45 -20 15 -6 27 -15 27 -21 0 -6 -24 -26 -52 -45 -29 -18 -75
-52 -103 -74 -27 -23 -53 -41 -57 -41 -20 0 -2 20 67 74 66 52 87 76 70 76 -9
0 -78 -47 -175 -119 -64 -48 -101 -70 -114 -67 -11 3 -35 -4 -53 -15 -24 -15
-33 -17 -33 -7 0 7 44 42 97 78 53 36 119 86 147 111 56 49 96 79 108 79 5 0
16 -4 26 -9z m-330 -43 c-5 -16 -137 -122 -288 -232 -92 -66 -124 -84 -160
-89 l-45 -6 45 23 c25 12 133 88 240 169 107 81 199 147 203 147 5 0 7 -6 5
-12z m3262 -13 c0 -11 -12 -15 -50 -15 -46 0 -60 7 -43 23 3 4 26 7 50 7 32 0
43 -4 43 -15z m-3350 -2 c-1 -8 -45 -36 -185 -116 -38 -22 -106 -68 -150 -102
-184 -142 -195 -149 -195 -125 0 10 197 171 293 239 32 23 44 38 37 45 -6 6
-17 3 -32 -11 -27 -24 -68 -46 -74 -40 -2 2 16 23 41 46 42 38 75 53 75 32 0
-5 19 -2 43 6 81 30 147 41 147 26z m3354 -31 c20 -4 -4 -12 -80 -27 -106 -20
-114 -20 -114 8 0 21 3 22 93 21 50 0 96 -1 101 -2z m-2869 -11 c8 -14 -24
-41 -48 -41 -21 1 -21 2 6 25 31 28 34 29 42 16z m-2759 -33 c4 -6 -1 -17 -11
-25 -24 -17 -28 -17 -54 6 l-22 20 33 4 c18 2 36 5 40 5 4 1 10 -3 14 -10z
m5670 -19 c12 -20 -10 -28 -106 -40 -52 -6 -102 -17 -112 -23 -22 -16 -78 -8
-78 10 0 9 12 14 34 14 19 0 41 7 50 15 8 8 34 16 58 16 24 1 57 5 73 9 45 12
73 11 81 -1z m-5656 -23 c0 -3 -4 -8 -10 -11 -5 -3 -10 -1 -10 4 0 6 5 11 10
11 6 0 10 -2 10 -4z m5645 -45 c6 -11 -6 -15 -97 -31 -37 -7 -75 -10 -83 -6
-33 12 -11 24 63 33 108 14 110 14 117 4z m-175 -71 c0 -5 -17 -12 -37 -15
-21 -3 -48 -8 -60 -11 -25 -5 -33 20 -10 29 22 10 107 7 107 -3z m228 -37 c-3
-15 -18 -19 -92 -23 -66 -4 -91 -10 -100 -22 -24 -32 -226 -47 -226 -16 0 17
52 28 133 29 45 1 73 3 62 6 -47 11 -32 22 41 28 44 3 88 7 99 9 11 2 35 4 53
5 27 1 33 -2 30 -16z m58 -94 c11 -19 -18 -29 -83 -29 -41 0 -67 -5 -77 -15
-9 -10 -44 -18 -93 -22 -43 -3 -80 -9 -83 -14 -8 -11 -224 -39 -233 -30 -18
18 24 38 93 44 39 3 77 10 83 15 7 5 48 12 92 16 44 4 82 12 86 17 14 23 202
38 215 18z m34 -84 c0 -9 -10 -15 -27 -16 -28 -1 -28 -1 -4 -8 57 -16 27 -26
-76 -26 -60 0 -136 -4 -170 -9 -53 -7 -63 -6 -63 6 0 12 22 18 90 27 50 6 94
10 98 7 4 -2 25 4 47 14 50 24 105 26 105 5z m-60 -74 c0 -6 -4 -12 -9 -16
-18 -11 -257 -24 -287 -16 -43 12 -16 20 106 30 150 12 190 12 190 2z m-385
-11 c6 -10 -5 -13 -106 -29 -90 -15 -110 -14 -103 3 10 25 195 48 209 26z m73
-52 c-3 -8 -33 -16 -74 -21 -38 -4 -88 -12 -112 -17 -23 -6 -65 -10 -93 -10
-71 0 -59 23 17 33 223 30 267 32 262 15z m422 -2 c0 -7 -14 -16 -31 -20 -62
-12 -149 -4 -149 15 0 7 24 10 148 17 21 1 32 -3 32 -12z m-196 -40 c-3 -8
-37 -17 -92 -25 -48 -7 -134 -21 -192 -32 -183 -35 -322 -51 -333 -40 -8 8 -1
14 21 22 18 6 32 15 32 20 0 5 19 9 43 9 51 0 236 20 257 28 28 11 155 29 212
31 45 1 56 -2 52 -13z m215 -5 c8 -5 11 -16 8 -25 -5 -12 -22 -15 -84 -14 -90
2 -143 -8 -143 -26 0 -9 25 -12 94 -11 65 1 94 -2 93 -9 -1 -6 -11 -14 -22
-18 -11 -4 -3 -5 19 -2 29 4 37 2 34 -8 -6 -16 -88 -24 -88 -8 0 7 -34 9 -106
6 -77 -3 -104 -2 -101 7 2 6 14 14 28 17 l24 6 -24 7 c-13 3 -61 0 -105 -8
-141 -24 -200 -29 -192 -16 4 6 16 11 27 11 11 0 29 5 40 11 32 16 181 39 217
33 24 -5 32 -3 32 9 0 24 218 57 249 38z m-7773 -89 c-7 -7 -46 9 -46 18 0 5
11 4 25 -2 14 -6 23 -13 21 -16z m7169 -32 c-3 -5 -15 -10 -26 -10 -11 0 -17
5 -14 10 3 6 15 10 26 10 11 0 17 -4 14 -10z m275 0 c0 -5 -7 -10 -16 -10 -8
0 -12 5 -9 10 3 6 10 10 16 10 5 0 9 -4 9 -10z m-80 -15 c0 -10 -11 -15 -35
-15 -33 0 -43 8 -28 23 13 14 63 7 63 -8z m-297 -9 c6 -15 -38 -26 -105 -26
-40 0 -55 24 -20 33 41 11 120 7 125 -7z m767 4 c0 -5 -16 -10 -35 -10 -31 0
-35 -3 -35 -25 0 -14 -4 -25 -10 -25 -5 0 -10 3 -10 8 0 4 -3 17 -6 29 -5 19
-1 22 28 26 61 7 68 7 68 -3z m-590 -25 c0 -11 -11 -15 -42 -15 -24 0 -77 -9
-118 -19 -76 -19 -134 -18 -127 3 2 6 36 14 76 18 40 3 78 11 84 17 6 6 37 11
69 11 45 0 58 -3 58 -15z m440 0 c0 -9 -9 -15 -21 -15 -16 0 -19 -4 -15 -17 4
-9 1 -20 -6 -25 -10 -6 -8 -8 5 -8 9 0 17 5 17 11 0 14 210 3 224 -11 15 -15
-1 -24 -47 -26 -23 -1 -50 -5 -60 -9 -10 -4 -38 -5 -63 -2 -24 2 -46 1 -49 -3
-2 -4 -26 -8 -52 -9 -26 0 -56 -4 -67 -7 -12 -4 -16 -2 -12 5 4 6 0 11 -9 11
-9 0 -15 -6 -13 -12 5 -13 41 -18 219 -32 80 -6 87 -5 85 11 -1 13 7 19 28 21
36 4 56 -20 23 -29 -12 -3 -21 -10 -20 -16 4 -20 -103 -23 -247 -7 -234 25
-271 27 -283 15 -6 -6 -22 -11 -36 -12 -18 -1 -11 -4 18 -11 37 -8 47 -7 57 6
14 20 50 21 58 1 4 -11 -2 -15 -24 -15 -21 0 -30 -5 -30 -16 0 -13 -7 -15 -31
-10 -17 3 -42 6 -55 6 -17 0 -24 6 -24 20 0 27 -49 40 -62 16 -15 -26 -104
-17 -94 10 3 8 -1 14 -9 14 -17 0 -21 45 -5 55 21 13 117 18 124 6 4 -6 19
-11 34 -10 15 0 21 3 15 6 -18 7 -16 30 3 37 9 3 28 6 44 6 20 0 27 5 26 17
-2 24 35 29 50 8 11 -15 18 -16 45 -6 48 17 119 14 119 -4 0 -10 -10 -15 -27
-15 -55 0 -208 -32 -222 -45 -13 -13 0 -14 90 -11 68 3 103 8 102 15 -2 6 10
11 26 11 39 0 61 9 61 26 0 8 7 14 16 14 10 0 14 6 10 15 -6 18 20 34 57 35
17 0 27 -5 27 -15z m-740 -60 c0 -12 -14 -15 -65 -15 -53 0 -63 3 -59 15 5 11
22 15 65 15 46 0 59 -3 59 -15z m100 -45 c13 -9 13 -11 0 -20 -23 -15 -70 -12
-70 4 0 24 43 34 70 16z m-220 -50 c0 -5 -5 -10 -11 -10 -5 0 -7 5 -4 10 3 6
8 10 11 10 2 0 4 -4 4 -10z m260 -30 c0 -15 -51 -32 -77 -27 -13 2 -23 0 -23
-4 0 -5 -15 -10 -32 -10 -25 -1 -27 -3 -10 -6 41 -8 17 -27 -49 -40 -83 -15
-102 -16 -97 -1 3 7 31 18 64 24 l59 11 -50 2 c-28 0 -55 -3 -60 -8 -10 -10
-216 -44 -222 -37 -17 17 122 56 198 56 20 0 39 4 41 10 2 5 38 13 81 16 43 4
80 11 83 15 7 13 94 11 94 -1z m-4580 -55 c-16 -20 -210 -139 -216 -133 -2 3
19 23 48 45 29 22 80 63 113 91 53 46 60 49 63 31 2 -11 -2 -26 -8 -34z m4680
29 c0 -11 -8 -14 -32 -12 -46 4 -49 28 -4 28 26 0 36 -4 36 -16z m243 -2 c-2
-7 4 -12 12 -12 8 0 12 -6 9 -14 -8 -20 17 -25 81 -19 40 4 55 10 51 19 -4 10
13 12 80 10 46 -2 84 0 84 4 0 8 29 12 159 26 l55 6 -17 -26 c-17 -25 -17 -26
3 -26 11 0 20 -7 20 -15 0 -19 -20 -19 -56 0 -35 18 -164 21 -164 4 0 -9 -22
-10 -75 -6 -62 6 -75 4 -75 -8 0 -8 -10 -17 -22 -19 -29 -6 -109 -16 -125 -15
-63 2 -126 -3 -211 -17 -34 -5 -41 -4 -37 8 6 15 135 48 195 49 22 1 27 3 15
6 -11 3 -29 12 -40 19 -19 14 -19 14 3 14 12 0 21 3 21 8 -3 18 2 23 19 20 9
-2 16 -10 15 -16z m137 -7 c0 -11 -12 -15 -45 -15 -33 0 -45 4 -45 15 0 11 12
15 45 15 33 0 45 -4 45 -15z m-280 -39 c0 -10 -16 -17 -47 -21 -27 -4 -66 -11
-88 -17 -22 -5 -62 -13 -90 -17 -27 -3 -55 -10 -62 -14 -18 -11 -162 -34 -223
-36 -30 -1 -56 -6 -58 -11 -5 -13 -82 -13 -82 -1 0 6 21 13 48 17 26 3 52 10
58 15 5 4 30 10 55 12 57 5 168 26 194 37 11 5 38 11 60 15 22 3 67 12 100 20
83 18 135 19 135 1z m-565 -57 c4 -6 5 -12 4 -14 -8 -7 -201 -36 -207 -31 -10
11 4 16 89 35 102 23 106 24 114 10z m755 -23 c0 -9 -18 -15 -57 -19 -70 -7
-90 2 -37 19 55 17 94 17 94 0z m220 0 c0 -17 -25 -23 -118 -32 -60 -6 -72 -4
-72 8 0 11 19 18 73 25 106 15 117 15 117 -1z m373 -15 c6 -6 8 -14 4 -17 -7
-8 -347 -7 -355 1 -13 13 17 20 106 26 126 9 231 4 245 -10z m-1453 -21 c0
-15 -34 -29 -78 -32 -56 -4 -52 14 6 28 62 15 72 16 72 4z m660 0 c0 -7 28 -8
80 -4 68 6 80 5 75 -8 -7 -16 -207 -46 -212 -31 -4 11 -89 2 -215 -22 -72 -13
-297 -45 -320 -45 -4 0 -8 6 -8 14 0 10 69 24 263 55 144 23 269 44 277 45 33
8 60 5 60 -4z m-470 -24 c0 -10 -16 -17 -47 -21 -27 -4 -70 -13 -98 -20 -27
-8 -113 -25 -190 -40 -77 -14 -148 -27 -157 -29 -26 -6 -32 11 -9 23 18 10
299 68 426 89 33 5 63 10 68 11 4 0 7 -5 7 -13z m1040 -5 c0 -15 -49 -22 -270
-35 -120 -7 -215 -17 -218 -23 -4 -6 -69 -13 -147 -17 -123 -6 -138 -5 -122 8
12 9 54 17 115 21 53 3 105 10 114 15 24 14 75 20 218 29 183 12 310 12 310 2z
m205 -6 c0 -5 -19 -11 -42 -13 -36 -3 -42 -1 -37 13 5 12 17 15 43 13 20 -2
36 -7 36 -13z m-5 -41 c27 -32 -6 -42 -187 -53 -94 -6 -186 -11 -205 -11 l-33
1 32 14 c17 7 100 19 185 26 105 9 156 17 161 26 11 17 32 16 47 -3z m-1460
-59 c0 -8 -7 -15 -15 -15 -8 0 -15 7 -15 15 0 8 7 15 15 15 8 0 15 -7 15 -15z
m584 7 c6 -10 -361 -65 -375 -57 -4 3 -37 -1 -72 -9 -61 -14 -246 -46 -267
-46 -6 0 -8 5 -4 11 5 8 -3 10 -27 6 -109 -19 -129 -20 -129 -4 0 9 8 18 18
20 9 2 -2 2 -25 0 -57 -6 -61 21 -5 31 42 7 107 6 80 -1 -33 -8 -19 -26 15
-19 17 4 57 9 87 12 55 5 55 5 25 -11 -36 -18 -42 -19 154 20 73 15 143 24
154 21 11 -3 41 -1 66 4 43 9 198 26 268 29 17 0 34 -3 37 -7z m-644 -17 c0
-9 -9 -15 -24 -15 -13 0 -39 -3 -57 -6 l-34 -5 40 20 c49 24 75 26 75 6z
m1030 -7 c-36 -5 -75 -14 -87 -20 -12 -6 -38 -8 -57 -5 -20 3 -38 1 -41 -4
-10 -15 -75 -11 -75 5 0 14 152 33 270 33 l55 0 -65 -9z m380 -12 c0 -13 -77
-26 -153 -26 -46 0 -20 20 39 29 79 14 114 13 114 -3z m-675 -16 c-3 -5 -12
-10 -20 -10 -8 0 -17 5 -20 10 -4 6 5 10 20 10 15 0 24 -4 20 -10z m265 -8 c0
-20 -248 -63 -284 -49 -37 15 -8 24 122 38 75 9 143 17 150 17 6 1 12 -1 12
-6z m578 -4 c-5 -15 -42 -24 -131 -33 -37 -4 -65 -10 -62 -15 3 -5 -9 -10 -27
-12 -18 -2 -31 -7 -28 -13 6 -12 47 -12 153 -1 66 7 77 6 77 -7 0 -17 -44 -22
-265 -32 -71 -4 -206 -17 -298 -31 -198 -28 -187 -28 -187 -10 0 23 276 57
475 58 22 0 32 2 23 5 -10 2 -18 9 -18 14 0 6 -36 8 -92 4 -62 -3 -86 -2 -73
4 30 14 10 13 -185 -9 -113 -13 -178 -16 -184 -10 -5 5 -7 12 -4 16 11 10 490
64 522 59 17 -3 72 1 121 9 120 18 188 20 183 4z m-1490 -74 c-15 -15 -94 -34
-200 -47 -34 -5 -47 -3 -51 7 -4 11 21 18 111 31 64 9 122 18 127 20 23 8 28
4 13 -11z m-388 -39 c0 -8 -7 -15 -15 -15 -16 0 -20 12 -8 23 11 12 23 8 23
-8z m100 -19 c0 -15 -20 -22 -100 -32 -65 -8 -60 8 11 30 59 19 89 19 89 2z
m160 -6 c0 -5 -26 -17 -57 -26 -32 -9 -69 -23 -83 -32 -14 -9 -27 -17 -30 -18
-3 0 -12 -4 -20 -7 -32 -13 -170 -34 -170 -26 0 5 3 9 8 9 4 0 12 10 17 22 8
19 30 27 132 49 188 42 203 44 203 29z m1568 -15 c18 -17 -27 -30 -116 -32
-53 -2 -106 -5 -117 -8 -11 -3 -83 -10 -160 -15 -77 -5 -171 -13 -209 -16 -56
-6 -68 -4 -64 7 5 16 222 50 278 43 19 -2 89 5 155 15 109 18 218 21 233 6z
m-188 -80 c0 -14 -53 -26 -191 -45 -85 -11 -169 -22 -186 -24 -23 -3 -33 -1
-33 9 0 12 50 22 285 54 72 10 125 13 125 6z m180 -40 c0 -8 -6 -15 -12 -15
-7 0 -89 -11 -182 -25 -92 -13 -180 -22 -195 -19 -15 3 -67 -2 -116 -11 -84
-15 -116 -12 -102 12 7 12 201 37 221 30 7 -3 76 5 152 18 170 28 234 31 234
10z m-1881 -86 c-35 -19 -99 -26 -99 -10 0 14 73 37 104 33 l29 -5 -34 -18z
m1731 1 c0 -5 -1 -10 -2 -10 -72 -13 -245 -26 -252 -19 -16 15 -3 18 100 28
142 12 154 12 154 1z m-300 -29 c0 -10 -118 -26 -127 -18 -3 3 -2 10 2 16 8
13 125 15 125 2z m400 -5 c0 -15 -80 -33 -98 -22 -5 3 -38 1 -73 -5 -109 -16
-118 -19 -112 -35 3 -9 -1 -14 -12 -14 -12 0 -15 5 -11 16 5 13 1 15 -22 10
-68 -13 -139 -17 -162 -8 -18 7 -21 11 -10 15 20 7 333 47 395 50 28 2 62 4
78 5 18 1 27 -3 27 -12z m-1900 -21 c0 -7 -37 -21 -80 -30 -32 -6 -34 -6 -15
8 27 20 95 36 95 22z m1798 -17 c-6 -18 -28 -21 -28 -4 0 9 7 16 16 16 9 0 14
-5 12 -12z m-1768 -16 c0 -4 -25 -25 -56 -45 -44 -30 -66 -38 -106 -40 -60 -2
-72 12 -26 32 18 7 48 20 66 29 54 25 122 38 122 24z m1680 -2 c0 -5 -7 -10
-16 -10 -8 0 -12 5 -9 10 3 6 10 10 16 10 5 0 9 -4 9 -10z m-160 -20 c0 -5 -7
-10 -15 -10 -8 0 -15 5 -15 10 0 6 7 10 15 10 8 0 15 -4 15 -10z m-32 -41
c-27 -15 -118 -24 -118 -11 0 15 19 20 80 21 42 0 51 -2 38 -10z m352 -29 c0
-24 -29 -39 -40 -20 -6 10 -24 9 -91 -3 -136 -26 -317 -57 -334 -57 -29 0 -15
28 18 36 83 18 367 62 405 63 36 1 42 -2 42 -19z m-1940 -35 c0 -14 -32 -25
-107 -39 -24 -4 -33 -2 -33 9 0 9 22 19 63 28 80 20 77 19 77 2z m1838 -44
c18 -11 -52 -44 -76 -37 -10 4 -67 -3 -128 -13 -147 -26 -167 -28 -171 -14 -5
15 20 23 167 49 138 24 188 28 208 15z m-1961 -71 c-44 -24 -47 -24 -47 -6 0
14 21 22 65 25 13 1 6 -6 -18 -19z m-7 -50 c0 -5 -8 -10 -17 -10 -15 0 -16 2
-3 10 19 12 20 12 20 0z m1712 -21 c-37 -24 -122 -38 -122 -21 0 6 4 14 10 17
12 8 87 23 120 24 24 1 24 0 -8 -20z m238 -9 c0 -18 -35 -28 -160 -44 -69 -9
-140 -19 -157 -22 -38 -6 -45 11 -10 27 22 10 249 46 300 48 15 1 27 -3 27 -9z
m-285 -100 c-3 -5 2 -10 12 -11 10 0 -6 -6 -35 -13 -67 -17 -82 -31 -22 -22
25 4 68 10 95 13 85 9 35 -23 -72 -46 -126 -28 -121 -30 -109 24 10 43 12 45
56 50 41 6 70 11 78 14 2 0 0 -3 -3 -9z m190 -10 c-3 -5 -10 -10 -16 -10 -5 0
-9 5 -9 10 0 6 7 10 16 10 8 0 12 -4 9 -10z m-62 -91 c-14 -14 -216 -68 -255
-69 -16 0 -28 5 -28 10 0 6 1 10 3 10 1 0 54 13 117 30 124 31 182 38 163 19z
m-18 -159 c9 -15 -38 -30 -128 -41 -44 -5 -89 -16 -101 -23 -24 -16 -193 -43
-203 -32 -15 15 20 28 112 41 53 8 102 18 108 24 12 10 142 38 184 40 12 1 25
-4 28 -9z m-284 -19 c-6 -4 -26 -5 -44 -2 l-32 5 35 6 c38 7 59 2 41 -9z m189
-105 c0 -7 -12 -18 -27 -24 -44 -18 -161 -35 -194 -28 -20 4 -28 2 -26 -7 1
-7 -11 -12 -33 -13 -19 0 -59 -4 -89 -9 -43 -6 -53 -5 -49 5 5 15 25 22 118
40 74 14 81 15 170 25 36 4 72 11 80 16 23 13 50 10 50 -5z m-153 -100 c2 -1
4 -13 5 -26 2 -19 -3 -26 -27 -33 -16 -5 -49 -15 -72 -22 -23 -7 -51 -11 -63
-8 -12 3 -28 -1 -38 -10 -20 -19 -144 -47 -203 -47 -21 0 -39 -4 -39 -9 0 -11
-17 -17 -74 -27 -36 -6 -38 -6 -27 14 7 13 25 23 51 27 22 4 40 11 40 15 0 9
39 19 93 25 170 18 165 17 175 41 9 18 8 24 -5 28 -15 6 -13 16 4 19 4 1 24 7
43 13 28 10 125 10 137 0z m8 -157 c0 -15 -39 -26 -102 -28 -31 -1 -43 3 -43
13 0 10 16 17 48 21 26 3 54 8 62 9 24 5 35 0 35 -15z m-95 -53 c0 -15 -138
-46 -207 -46 -24 0 -43 -4 -43 -9 0 -4 -29 -11 -65 -13 -37 -3 -70 -12 -79
-20 -24 -25 -246 -60 -246 -39 0 14 70 43 86 37 26 -10 64 5 64 25 0 18 28 27
85 28 43 0 131 13 150 21 21 9 151 26 218 28 25 2 37 -2 37 -12z m-80 -75 c0
-11 -25 -21 -52 -21 -17 0 -18 3 -8 15 13 16 60 21 60 6z m-226 -60 c13 -5 -1
-11 -48 -19 -43 -8 -73 -9 -84 -3 -33 19 88 39 132 22z m189 -4 c-11 -7 -33
-21 -48 -32 -15 -10 -39 -21 -54 -22 -14 -2 -56 -7 -93 -12 -37 -5 -73 -13
-80 -18 -14 -11 -79 -28 -143 -38 -22 -4 -44 -10 -50 -15 -5 -4 -29 -10 -53
-13 -24 -3 -49 -12 -55 -20 -7 -8 -33 -18 -59 -22 -40 -5 -48 -3 -48 9 0 11
13 18 40 22 22 4 40 12 40 19 0 8 22 17 53 23 28 6 76 18 105 26 29 8 85 20
124 25 39 5 74 14 77 18 3 5 26 15 51 22 25 7 63 19 85 26 22 6 60 12 84 13
38 0 41 -1 24 -11z m-358 -16 c-7 -13 -105 -41 -140 -41 -41 0 -25 23 26 36
54 15 122 17 114 5z m-200 -41 c11 -17 -19 -37 -74 -49 -30 -6 -55 -10 -57 -8
-12 12 28 39 64 44 23 3 42 10 42 14 0 12 17 11 25 -1z m575 -44 c0 -18 -30
-30 -43 -17 -5 5 -6 14 -3 20 10 16 46 13 46 -3z m-107 -16 c-3 -11 -13 -20
-22 -20 -9 0 -26 -3 -38 -6 -34 -9 -30 22 5 34 45 17 61 15 55 -8z m-1153 -10
c12 -8 13 -15 1 -57 -50 -178 -34 -310 41 -349 65 -34 119 23 123 130 2 57 3
60 39 78 l36 19 11 -28 c20 -51 7 -162 -26 -228 -39 -77 -88 -116 -154 -123
-61 -6 -107 19 -150 81 -63 93 -89 260 -56 372 28 99 40 115 83 115 20 0 44
-4 52 -10z m1180 -30 c0 -5 -7 -10 -15 -10 -8 0 -15 5 -15 10 0 6 7 10 15 10
8 0 15 -4 15 -10z m-100 -14 c0 -8 -8 -17 -17 -20 -21 -6 -188 -35 -241 -41
-20 -3 -58 -10 -84 -17 -82 -20 -75 10 10 47 30 13 46 15 50 8 5 -8 23 -7 62
3 59 16 148 31 193 33 17 1 27 -4 27 -13z m-1460 -41 c10 -12 10 -24 2 -53 -6
-20 -12 -81 -13 -136 -2 -127 -9 -154 -49 -196 l-32 -35 6 34 c3 19 9 100 12
180 9 211 -10 168 -29 -66 -9 -112 -21 -201 -29 -215 l-13 -23 -3 28 c-2 16 6
101 17 191 24 184 25 214 11 200 -5 -5 -15 -54 -21 -109 -7 -55 -16 -104 -22
-110 -6 -7 -7 6 -3 35 3 25 2 71 -3 104 -7 50 -5 64 13 97 12 21 26 39 32 39
7 0 14 7 18 15 12 32 85 45 106 20z m883 -35 c25 -28 59 -55 74 -61 36 -12 73
-82 73 -138 0 -46 6 -53 31 -38 13 8 22 8 29 1 16 -16 32 -130 28 -201 -2 -48
1 -66 14 -79 20 -20 38 -11 38 21 0 28 19 43 30 24 20 -31 23 -189 7 -369 -22
-247 -28 -460 -28 -1050 -1 -272 -2 -498 -5 -501 -2 -3 -34 4 -71 17 -130 43
-607 129 -878 158 -211 23 -505 37 -738 35 -114 -1 -211 1 -214 4 -3 3 4 19
15 34 65 91 512 1049 512 1097 0 21 17 31 118 71 98 40 130 62 71 52 -34 -6
-34 -6 7 13 46 20 65 40 39 40 -15 0 -210 -75 -287 -110 -14 -7 -24 -18 -22
-25 3 -7 -8 -17 -25 -23 -32 -11 -42 -32 -16 -32 9 0 32 7 52 15 20 8 37 14
38 13 1 -2 -52 -120 -119 -263 -102 -218 -126 -263 -153 -280 -18 -11 -32 -27
-33 -34 0 -12 3 -12 12 -3 19 19 33 14 15 -6 -10 -10 -17 -25 -17 -33 -1 -17
-25 -51 -32 -43 -13 12 -58 -9 -58 -27 0 -11 -7 -19 -17 -19 -9 0 -13 -3 -10
-7 4 -3 2 -12 -4 -20 -16 -18 0 -16 41 7 27 15 30 19 15 20 -18 1 -17 2 5 15
14 7 26 12 28 10 4 -4 -79 -186 -107 -235 -5 -8 -19 -39 -32 -67 -12 -29 -25
-53 -29 -53 -3 0 -11 -19 -18 -42 -20 -74 -15 -72 -184 -79 -217 -9 -668 -73
-807 -115 -25 -7 -48 -11 -52 -8 -4 2 -15 26 -24 53 -14 42 -15 79 -9 257 4
116 11 200 15 189 4 -11 9 78 11 198 5 374 4 400 -9 405 -7 2 -13 -3 -13 -11
0 -9 -5 -17 -10 -19 -7 -2 -13 -166 -17 -456 -3 -248 -9 -452 -13 -452 -9 0
-30 77 -31 112 0 13 -3 17 -6 11 -3 -10 -9 -8 -21 4 -14 13 -18 42 -20 155 -2
94 0 138 7 138 7 0 11 -26 12 -67 0 -38 5 -77 10 -88 6 -13 7 29 4 120 -2 77
-8 232 -12 345 -4 113 -9 195 -11 183 -2 -13 -8 -23 -13 -23 -5 0 -9 -47 -9
-105 0 -63 -4 -105 -10 -105 -6 0 -10 40 -10 100 0 68 -4 100 -11 100 -9 0
-10 -25 -5 -87 10 -112 25 -557 20 -562 -10 -11 -25 18 -34 64 -6 28 -13 179
-17 337 -5 262 -5 288 11 293 9 3 24 8 34 12 9 3 24 7 32 8 18 2 48 13 72 26
10 5 25 9 33 9 9 0 28 6 43 14 15 7 43 16 62 20 l35 6 -4 -423 c-3 -387 -5
-425 -22 -457 l-18 -35 -1 164 c0 90 5 272 11 405 10 236 7 293 -18 278 -14
-9 -36 -520 -32 -747 2 -129 -5 -185 -22 -185 -5 0 -9 -9 -9 -20 0 -20 1 -20
23 2 13 13 56 69 95 125 39 55 78 107 85 115 7 7 45 50 85 95 51 58 102 102
179 154 59 39 143 98 186 131 43 32 113 81 154 109 196 130 294 215 386 337
11 15 49 59 83 97 58 67 62 73 61 120 0 28 3 113 7 190 4 87 3 146 -3 155 -9
13 -11 13 -15 0 -3 -8 -7 -33 -9 -55 -3 -31 -4 -28 -5 18 -2 46 2 60 18 74 11
10 20 23 20 30 0 7 4 13 10 13 5 0 17 15 26 33 9 17 25 41 35 52 11 11 29 31
41 45 l21 25 -7 -35 c-4 -19 -11 -118 -16 -220 -12 -231 -11 -221 -20 -183 -4
17 -4 92 1 165 7 123 6 149 -6 137 -2 -3 -9 -68 -14 -144 -6 -77 -13 -173 -16
-212 -5 -63 -4 -72 10 -67 8 3 15 12 15 19 0 7 7 18 15 25 9 7 29 33 45 57 16
24 34 49 40 56 9 11 33 44 145 204 22 31 63 84 90 117 28 34 59 74 70 90 14
20 39 35 87 51 37 12 70 20 73 17 3 -3 5 -19 5 -36 0 -76 93 -197 178 -233 98
-41 235 36 287 162 23 53 30 163 16 222 -11 42 -11 49 4 58 9 5 42 27 73 47
31 21 62 38 69 38 6 0 31 -23 56 -50z m121 23 c-27 -20 -65 -27 -82 -16 -32
20 -20 28 40 29 55 1 60 0 42 -13z m-902 -63 c33 -33 65 -58 71 -57 7 1 12 -4
11 -10 -1 -7 -2 -29 -2 -48 -2 -40 -16 -46 -27 -12 -7 21 -7 21 -12 2 -10 -41
-23 -39 -23 3 0 54 -15 54 -26 0 -7 -32 -17 -46 -43 -62 l-34 -20 6 40 c4 21
7 81 7 132 0 50 3 92 6 92 4 0 33 -27 66 -60z m1442 45 c-6 -15 -72 -37 -147
-51 -32 -5 -36 -4 -31 10 3 9 7 16 8 16 0 0 26 9 56 20 70 24 122 26 114 5z
m-219 -44 c8 -14 -19 -26 -119 -52 -65 -16 -91 -19 -94 -11 -2 7 -17 12 -32
12 -16 0 -31 4 -35 10 -9 14 93 41 134 35 20 -3 50 -1 66 4 40 12 72 13 80 2z
m-1514 -140 c-6 -39 -11 -107 -12 -153 -1 -143 -14 -248 -34 -266 -17 -16 -17
-12 -11 88 4 58 9 140 13 183 4 48 2 77 -4 77 -10 0 -23 -112 -23 -196 0 -24
-4 -46 -10 -49 -5 -3 -10 -32 -10 -63 0 -31 -5 -75 -11 -96 -9 -34 -12 -37
-21 -22 -6 10 -7 37 -3 61 3 24 6 114 6 200 1 107 5 159 13 168 6 6 18 26 25
44 7 17 19 34 27 37 8 3 14 11 14 19 0 19 43 63 48 49 2 -7 -1 -43 -7 -81z
m695 23 c-8 -72 -20 -94 -52 -94 -20 0 -29 9 -44 43 -11 23 -20 54 -20 69 0
25 3 27 48 31 26 2 53 4 61 5 11 2 12 -9 7 -54z m942 34 c-7 -21 -219 -78
-289 -78 -44 0 -38 28 9 36 20 3 82 17 137 29 117 27 148 30 143 13z m-288
-148 c0 -5 -4 -10 -10 -10 -5 0 -10 5 -10 10 0 6 5 10 10 10 6 0 10 -4 10 -10z
m148 -2 c-5 -13 -87 -37 -127 -38 -20 0 -22 3 -13 13 30 30 148 51 140 25z
m-18 -81 c0 -14 -52 -57 -69 -57 -9 0 -21 23 -21 41 0 12 37 28 68 28 12 1 22
-5 22 -12z m-1799 -248 c-10 -78 -23 -105 -44 -92 -6 4 -7 -40 -2 -112 5 -85
4 -116 -4 -111 -7 5 -11 -7 -11 -36 0 -43 -13 -78 -25 -66 -4 4 -2 69 4 145 6
77 11 149 11 161 0 34 -18 26 -23 -10 -3 -24 -4 -20 -5 17 -2 39 -5 46 -14 37
-9 -9 -13 -66 -13 -202 0 -105 -3 -190 -7 -190 -4 0 -8 -10 -10 -22 -3 -26
-24 -26 -21 0 1 9 5 101 9 204 5 138 4 188 -5 188 -6 0 -11 -15 -11 -32 0
-106 -23 -424 -30 -432 -6 -6 -7 74 -3 202 4 156 3 212 -5 212 -18 0 -21 -31
-24 -251 l-3 -205 -35 -31 c-19 -17 -37 -30 -40 -28 -3 2 -2 56 2 122 4 65 7
181 5 258 -1 77 2 146 6 153 5 6 16 12 25 12 10 0 33 13 52 30 19 16 43 29 53
30 9 0 17 5 17 10 0 6 11 15 25 20 14 5 25 14 25 20 0 5 4 10 9 10 8 0 57 38
85 66 6 7 12 11 14 9 2 -1 -2 -40 -7 -86z m-14 -201 c-2 -13 -4 -3 -4 22 0 25
2 35 4 23 2 -13 2 -33 0 -45z m-317 7 c0 -25 -4 -45 -10 -45 -5 0 -10 -20 -10
-44 0 -47 -26 -324 -37 -396 l-7 -45 -6 45 c-4 25 -4 47 0 50 4 3 12 82 19
176 13 209 13 214 1 214 -5 0 -11 -24 -12 -52 l-1 -53 -6 55 c-10 91 -21 41
-31 -137 -13 -243 -21 -328 -31 -344 -17 -27 -19 1 -10 112 12 139 22 401 15
377 -3 -10 -9 -18 -14 -18 -4 0 -10 -9 -13 -20 -3 -12 -14 -20 -26 -20 -18 0
-21 -6 -21 -42 0 -31 3 -39 10 -28 5 8 11 12 13 10 8 -10 15 -90 8 -90 -5 0
-14 -74 -21 -165 -11 -147 -15 -167 -32 -176 -19 -10 -20 -8 -14 28 3 21 8 73
12 116 3 42 11 77 16 77 7 0 8 19 4 50 -4 32 -3 50 4 50 5 0 10 18 10 40 0 27
-4 39 -12 38 -10 -2 -12 11 -10 50 3 33 0 52 -7 52 -6 0 -11 -11 -11 -24 0
-16 -7 -27 -20 -31 -17 -5 -20 -15 -20 -58 0 -67 -28 -416 -35 -438 -6 -16
-53 -54 -60 -47 -2 2 1 68 5 148 22 371 23 400 11 400 -6 0 -12 -10 -12 -22
l-2 -23 -4 23 c-2 12 -9 22 -14 22 -5 0 -9 -1 -9 -2 -3 -14 -29 -475 -30 -510
0 -27 5 -48 10 -48 6 0 11 21 12 48 l2 47 3 -48 c4 -42 1 -52 -21 -72 l-26
-24 0 284 c0 157 -3 285 -6 285 -3 0 -14 -5 -25 -10 -17 -10 -19 -22 -19 -135
0 -68 4 -126 9 -130 5 -3 12 3 14 12 7 28 8 -83 1 -214 -7 -118 -7 -119 -35
-136 l-29 -16 0 273 c0 150 -3 294 -6 319 -6 44 -5 47 22 58 38 15 99 42 152
68 24 11 50 21 58 21 8 0 14 5 14 10 0 6 7 10 15 10 8 0 34 11 58 25 25 13 47
21 51 18 3 -4 6 -2 6 3 0 5 25 23 55 39 31 16 60 35 67 42 22 27 38 14 38 -32z
m307 -132 c-3 -10 -5 -2 -5 17 0 19 2 27 5 18 2 -10 2 -26 0 -35z m-301 -95
c-3 -29 -8 -96 -11 -148 -7 -102 -12 -133 -24 -126 -3 2 -1 58 6 123 6 65 12
137 12 161 1 23 6 42 12 42 7 0 9 -18 5 -52z m-559 -35 c-3 -10 -5 -4 -5 12 0
17 2 24 5 18 2 -7 2 -21 0 -30z m-22 -5 c-4 -18 -11 -167 -14 -330 -4 -217 -9
-300 -18 -310 -10 -10 -13 50 -13 300 0 172 -4 312 -8 312 -9 0 -22 -334 -22
-547 0 -61 -4 -114 -9 -117 -5 -3 -8 134 -7 312 1 202 -3 319 -9 322 -7 3 -12
-114 -15 -336 l-5 -341 -42 -43 -43 -42 0 68 c0 48 3 64 10 54 6 -10 10 48 11
175 1 253 8 488 15 494 3 3 9 6 12 7 13 2 89 32 112 45 8 4 23 8 34 8 16 1 17
-4 11 -31z m-199 -70 c-6 -29 -12 -105 -33 -433 l-7 -110 -8 105 c-10 137 0
452 16 462 26 18 39 8 32 -24z m-406 -143 c0 -33 -4 -45 -15 -45 -10 0 -15
-10 -15 -27 l-1 -28 -19 24 c-11 13 -20 29 -20 37 0 7 -9 18 -20 24 -44 23
-16 43 83 59 4 0 7 -19 7 -44z m-3 -162 c-2 -21 -4 -6 -4 32 0 39 2 55 4 38 2
-18 2 -50 0 -70z m367 -414 c0 -47 -5 -84 -12 -91 -9 -9 -12 12 -12 92 0 83 3
101 12 92 8 -8 13 -42 12 -93z m4459 -799 c-7 -28 -13 -25 -13 6 0 14 4 23 9
20 5 -3 7 -15 4 -26z m-6843 -2525 c0 -9 -13 -24 -30 -33 -16 -9 -29 -23 -27
-29 3 -18 -66 -124 -78 -120 -5 2 -10 29 -11 61 -1 31 -4 59 -8 63 -3 3 -6 15
-6 25 0 13 8 18 28 19 15 0 47 6 72 13 61 18 60 18 60 1z"/>
<path class="tree" d="M3520 8630 c20 -13 190 -13 190 0 0 6 -41 10 -102 10 -70 0 -98 -3
-88 -10z"/>
<path class="tree" d="M3991 8297 c-54 -27 -39 -138 19 -145 21 -2 29 5 49 42 12 25 21 50
19 57 -2 7 -10 -2 -17 -19 -26 -62 -61 -31 -43 38 11 44 9 46 -27 27z"/>
<path class="tree" d="M5870 8285 c-7 -8 -18 -15 -24 -15 -6 0 -60 -45 -121 -101 -60 -55
-123 -110 -139 -122 -51 -39 -80 -71 -68 -75 7 -2 12 -19 12 -38 0 -50 26 -34
38 24 l10 47 1 -38 c1 -44 21 -41 21 3 0 36 10 61 21 54 5 -3 14 6 21 21 8 18
17 24 30 19 13 -4 18 0 18 15 0 14 6 21 20 21 13 0 20 7 20 19 0 23 16 36 25
21 11 -17 -4 -60 -20 -60 -8 0 -19 -9 -25 -20 -6 -11 -16 -19 -22 -17 -13 2
-35 -49 -25 -59 11 -11 67 37 67 57 0 10 6 19 13 19 19 0 36 37 39 84 3 41 28
65 28 27 0 -12 5 -21 10 -21 6 0 10 14 10 30 0 18 9 39 23 53 l22 22 3 -32 c2
-18 7 -33 13 -33 5 0 10 15 10 33 1 20 3 25 6 13 13 -52 57 -56 57 -6 1 25 5
34 16 32 8 -2 46 -3 85 -3 64 0 445 -31 558 -45 39 -6 47 -4 47 9 0 18 -8 20
-188 42 -140 18 -386 34 -513 35 -65 0 -90 -4 -99 -15z"/>
<path class="tree" d="M6085 8220 c4 -6 -14 -10 -46 -10 -29 0 -49 -3 -45 -7 9 -9 24 -12
146 -23 58 -6 173 -19 255 -29 133 -17 183 -16 163 4 -5 5 -98 18 -305 41 -31
4 -41 9 -36 20 4 11 -8 14 -67 14 -45 0 -69 -4 -65 -10z"/>
<path class="tree" d="M5917 8134 c-55 -17 -157 -102 -157 -131 0 -12 -63 -83 -73 -83 -19
0 -106 -122 -107 -149 0 -8 -24 -53 -54 -100 -66 -103 -73 -121 -54 -121 8 0
46 39 83 88 225 286 235 296 351 328 32 9 88 15 124 15 36 -1 76 2 90 8 21 8
22 10 5 11 -17 0 -17 2 -5 10 11 7 -4 10 -50 10 -55 1 -62 2 -45 13 25 15 181
15 196 0 9 -9 5 -28 -14 -75 -35 -88 -60 -220 -52 -271 10 -57 41 -110 77
-131 40 -24 44 -15 13 32 -21 31 -27 56 -31 111 -3 43 0 71 5 71 12 0 30 62
36 127 3 28 12 53 21 60 9 6 13 17 9 23 -4 6 -2 17 5 24 9 12 19 12 58 1 26
-7 60 -18 75 -24 16 -6 38 -11 50 -11 12 0 35 -7 51 -15 15 -8 38 -15 51 -15
12 0 28 -7 35 -15 7 -8 19 -15 26 -15 8 0 11 -6 8 -15 -4 -8 -15 -15 -26 -15
-10 0 -16 -5 -13 -10 3 -6 -5 -38 -18 -73 -13 -34 -32 -84 -42 -112 -26 -71
-79 -124 -140 -140 -63 -16 -69 -41 -8 -38 116 5 212 120 262 315 17 66 21 73
42 70 39 -4 42 -26 6 -35 l-32 -9 50 -23 c28 -13 88 -42 135 -64 47 -23 95
-41 105 -40 17 0 16 2 -5 12 -14 6 -27 14 -30 18 -10 13 -123 69 -140 69 -10
0 -23 7 -30 15 -11 13 -6 15 34 15 32 0 48 -5 52 -15 4 -8 15 -15 25 -15 10 0
19 -4 19 -10 0 -5 11 -12 25 -16 14 -3 25 -10 25 -15 0 -5 5 -9 11 -9 19 0 79
-70 79 -91 0 -10 -4 -19 -10 -19 -5 0 -10 -9 -10 -20 0 -11 -39 -82 -86 -159
-99 -163 -170 -236 -261 -272 -51 -20 -74 -22 -200 -21 -180 2 -367 38 -606
117 -93 30 -171 55 -173 55 -2 0 -4 -6 -4 -14 0 -25 200 -101 381 -145 123
-29 210 -44 342 -56 37 -4 65 -11 62 -16 -11 -17 50 -22 134 -11 89 12 210 62
219 90 3 10 -3 9 -22 -3 -15 -10 -29 -15 -32 -12 -3 3 8 12 24 21 47 24 104
90 210 240 53 76 125 177 160 224 34 47 61 90 59 96 -4 12 -142 72 -338 147
-175 67 -470 154 -624 185 -125 24 -301 39 -338 28z m81 -96 c-5 -13 -98 -41
-107 -33 -9 9 17 27 51 35 49 12 60 11 56 -2z"/>
<path class="tree" d="M3390 8049 c0 -41 26 -118 56 -162 35 -54 43 -33 11 30 -14 26 -31
68 -38 93 -15 55 -29 73 -29 39z"/>
<path class="tree" d="M6720 8046 c21 -20 270 -118 289 -113 20 4 -53 42 -175 91 -99 39
-140 47 -114 22z"/>
<path class="tree" d="M5620 7984 c0 -22 2 -25 15 -14 8 7 15 19 15 26 0 8 -7 14 -15 14
-10 0 -15 -10 -15 -26z"/>
<path class="tree" d="M6320 7960 c-32 -8 -18 -16 44 -24 33 -5 46 -4 41 3 -3 6 -17 11 -30
11 -13 0 -25 4 -27 8 -1 5 -14 6 -28 2z"/>
<path class="tree" d="M6485 7920 c-3 -5 -3 -10 0 -10 9 0 -17 -23 -40 -36 -39 -22 -58 -60
-59 -121 -1 -54 1 -58 23 -61 14 -2 33 6 50 21 14 13 34 27 44 30 32 12 17 25
-22 20 -47 -6 -56 5 -40 55 11 36 49 84 49 62 0 -5 9 -10 21 -10 14 0 19 5 16
14 -4 9 1 17 11 19 12 3 11 5 -5 6 -13 0 -23 6 -23 11 0 6 -4 10 -9 10 -6 0
-13 -4 -16 -10z"/>
<path class="tree" d="M6985 7690 c3 -5 8 -10 11 -10 2 0 4 5 4 10 0 6 -5 10 -11 10 -5 0
-7 -4 -4 -10z"/>
<path class="tree" d="M7174 7616 c-31 -39 -47 -47 -37 -18 9 27 -7 6 -86 -107 -77 -111
-93 -160 -22 -67 24 31 49 56 55 56 11 0 111 106 128 135 4 6 3 17 -1 24 -6
10 -16 4 -37 -23z"/>
<path class="tree" d="M5610 7483 c0 -19 37 -43 144 -93 125 -58 285 -109 465 -147 156 -33
380 -39 419 -12 21 15 16 16 -75 11 -208 -10 -550 66 -777 173 -157 74 -176
82 -176 68z"/>
<path class="tree" d="M9263 7045 c-265 -59 -563 -202 -683 -326 -125 -128 -149 -255 -56
-289 55 -20 61 -27 60 -59 -3 -57 -99 -181 -159 -207 -18 -7 -72 -16 -121 -19
-172 -10 -159 -3 -236 -124 -44 -69 -44 -84 3 -108 49 -25 110 -16 210 33 102
50 103 50 248 24 70 -12 104 2 182 77 57 55 232 274 245 307 4 10 1 16 -7 16
-15 0 -79 -69 -202 -217 -42 -50 -82 -95 -89 -99 -10 -6 -10 -5 -2 7 68 84
144 192 144 202 -1 15 -39 -31 -129 -155 -66 -91 -69 -93 -107 -92 -94 3 -97
12 -30 85 70 75 158 190 151 197 -9 10 -47 -32 -136 -150 l-88 -116 -47 4
c-29 3 -52 0 -62 -8 -12 -11 -16 -11 -20 0 -3 10 -15 4 -38 -19 -33 -32 -60
-35 -34 -4 7 9 10 18 6 22 -3 3 -6 1 -6 -5 0 -7 -5 -12 -11 -12 -6 0 -9 7 -5
15 9 23 0 18 -20 -12 -15 -24 -15 -26 -1 -14 15 11 17 11 17 -2 0 -21 -19 -34
-70 -44 -51 -10 -90 -6 -90 8 0 21 37 50 55 43 15 -6 16 -3 11 23 -5 19 -2 33
6 40 17 13 108 32 184 39 32 3 73 7 89 9 54 5 215 209 215 271 0 30 -35 70
-67 79 -38 9 -53 23 -53 50 0 27 93 170 121 188 11 7 19 17 19 24 0 14 50 43
73 43 8 0 17 -14 21 -32 5 -26 1 -37 -21 -60 -14 -15 -24 -30 -21 -34 4 -3 16
8 29 25 27 37 35 38 45 9 16 -53 183 -248 211 -248 22 0 15 17 -31 69 -82 92
-176 247 -176 289 0 20 39 62 57 62 6 0 14 -15 17 -34 4 -18 24 -61 46 -95 46
-70 71 -81 132 -57 47 18 60 16 23 -4 -32 -17 -34 -44 -2 -35 33 11 116 56
129 72 19 23 1 27 -45 9 -48 -18 -61 -20 -53 -8 3 5 -23 6 -56 4 -51 -4 -64
-2 -75 14 -20 28 -16 37 16 31 22 -5 36 -1 53 14 l23 20 -27 -5 c-19 -4 -28
-2 -28 6 0 9 -3 9 -12 0 -17 -17 -41 -15 -34 3 4 11 -1 15 -19 15 -16 0 -25 6
-25 16 0 8 5 12 11 9 16 -11 71 16 65 31 -3 8 0 14 6 14 6 0 9 3 5 6 -3 4 -21
-3 -40 -15 -39 -24 -67 -27 -67 -7 0 23 268 134 291 120 21 -13 88 -169 119
-279 32 -110 43 -135 57 -122 11 12 -17 156 -44 227 -14 36 -31 83 -39 105 -8
22 -22 45 -31 52 -8 7 -13 18 -10 26 8 22 64 28 173 18 18 -2 64 -67 70 -101
6 -26 4 -30 -14 -30 -29 0 -34 -13 -16 -39 11 -15 22 -20 35 -16 15 5 19 1 19
-19 0 -18 -6 -25 -22 -28 -23 -3 -58 -52 -46 -63 17 -17 85 41 80 68 -1 4 3 7
8 7 6 0 10 31 10 73 0 83 -25 147 -72 181 -35 25 -114 30 -195 11z"/>
<path class="tree" d="M9286 6975 c-25 -19 -9 -19 24 0 14 8 19 14 10 14 -8 0 -24 -6 -34
-14z"/>
<path class="tree" d="M9300 6945 c-16 -9 -19 -14 -9 -15 8 0 24 7 35 15 24 18 7 19 -26 0z"/>
<path class="tree" d="M9358 6934 c-16 -8 -28 -19 -28 -25 0 -6 3 -9 8 -7 45 22 62 33 62
40 0 11 -11 9 -42 -8z"/>
<path class="tree" d="M9361 6896 c-9 -11 -7 -15 13 -20 30 -7 56 2 56 20 0 18 -54 19 -69
0z"/>
<path class="tree" d="M9123 6836 c3 -19 13 -46 22 -60 19 -29 45 -35 45 -11 0 25 -38 92
-56 99 -14 5 -16 1 -11 -28z"/>
<path class="tree" d="M3764 6779 c14 -69 96 -163 330 -373 56 -50 80 -66 88 -58 8 8 3 21
-18 49 -31 41 -114 123 -125 123 -6 0 -21 12 -66 51 -64 57 -132 156 -98 142
8 -3 15 0 15 6 0 6 -11 11 -25 11 -18 0 -33 11 -53 40 -33 49 -57 53 -48 9z"/>
<path class="tree" d="M9460 6790 c0 -5 4 -10 9 -10 6 0 13 5 16 10 3 6 -1 10 -9 10 -9 0
-16 -4 -16 -10z"/>
<path class="tree" d="M4103 6723 c-15 -6 -18 -163 -4 -163 5 0 16 -3 25 -6 13 -5 16 1 16
30 0 23 -5 36 -13 36 -10 0 -13 14 -9 55 2 30 3 55 1 54 -2 0 -10 -3 -16 -6z"/>
<path class="tree" d="M4167 6723 c-11 -11 -8 -243 3 -243 6 0 10 19 10 43 0 23 3 79 7 125
6 76 0 96 -20 75z"/>
<path class="tree" d="M3930 6702 c0 -11 7 -23 16 -26 11 -4 15 0 12 16 -4 28 -28 36 -28
10z"/>
<path class="tree" d="M9473 6703 c-25 -17 -31 -43 -9 -43 16 0 66 38 66 51 0 14 -32 10
-57 -8z"/>
<path class="tree" d="M3977 6668 c3 -24 11 -56 19 -73 l12 -30 3 50 2 50 7 -55 7 -55 1 53
c1 28 7 52 12 52 6 0 10 11 10 25 0 22 -4 25 -39 25 l-39 0 5 -42z"/>
<path class="tree" d="M4130 6670 c0 -16 5 -30 10 -30 6 0 10 14 10 30 0 17 -4 30 -10 30
-5 0 -10 -13 -10 -30z"/>
<path class="tree" d="M4196 6607 c-8 -120 -8 -202 2 -211 4 -4 12 52 19 126 l11 133 -2
-152 c-3 -137 2 -178 17 -140 4 9 6 9 6 -1 1 -7 6 -10 11 -7 6 3 10 -1 10 -10
0 -15 2 -15 15 -1 18 18 33 136 17 136 -6 0 -13 -8 -15 -17 -3 -10 -5 6 -6 35
-1 65 -19 69 -24 5 -2 -27 -4 -2 -5 55 -1 60 -6 102 -12 102 -5 0 -10 4 -10 9
0 5 9 7 20 4 13 -3 20 -14 20 -29 0 -13 5 -24 10 -24 6 0 10 11 10 25 0 26 7
29 34 19 10 -4 16 -18 16 -40 0 -19 5 -34 10 -34 6 0 10 7 10 15 0 8 4 15 9
15 5 0 7 9 4 19 -5 19 -3 19 41 6 25 -8 67 -25 93 -38 l48 -23 -4 -79 c-3 -79
-15 -115 -38 -115 -7 0 -13 9 -13 20 0 11 -4 20 -10 20 -5 0 -10 -11 -10 -25
0 -14 -8 -29 -19 -35 -29 -15 -31 -13 -31 25 0 32 -18 51 -21 23 -1 -7 -3 -23
-4 -36 -5 -47 -15 -33 -15 21 0 31 -4 58 -9 61 -9 6 -21 -49 -21 -101 0 -18
-5 -33 -10 -33 -7 0 -8 28 -4 80 8 96 -10 112 -20 18 -11 -100 -15 -108 -46
-108 -16 0 -30 -7 -34 -15 -9 -26 52 -18 164 20 138 48 153 57 184 109 37 64
35 113 -6 153 -64 61 -222 114 -335 112 l-50 -2 -7 -90z m394 -79 c0 -18 -5
-40 -10 -48 -7 -11 -10 -2 -10 33 0 26 5 47 10 47 6 0 10 -15 10 -32z"/>
<path class="tree" d="M8625 6659 c-4 -6 -5 -12 -2 -15 2 -3 7 2 10 11 7 17 1 20 -8 4z"/>
<path class="tree" d="M9118 6637 c-53 -30 -75 -57 -45 -57 18 0 120 63 125 78 6 20 -19 13
-80 -21z"/>
<path class="tree" d="M8595 6620 c-3 -5 -1 -10 4 -10 6 0 11 5 11 10 0 6 -2 10 -4 10 -3 0
-8 -4 -11 -10z"/>
<path class="tree" d="M8624 6573 c-59 -75 -58 -73 -47 -84 8 -8 13 -7 17 0 11 17 26 13 26
-6 0 -13 10 -8 38 20 27 28 34 40 24 46 -8 4 -10 15 -6 26 5 13 4 16 -5 10
-10 -5 -11 -2 -6 14 10 31 1 26 -41 -26z"/>
<path class="tree" d="M4302 6564 c2 -8 6 -14 9 -12 4 2 15 -4 25 -13 11 -9 30 -20 44 -24
14 -4 45 -16 69 -27 56 -25 81 -30 81 -15 0 31 -115 92 -193 102 -31 4 -38 2
-35 -11z"/>
<path class="tree" d="M9281 6428 c-99 -180 -237 -338 -343 -393 -53 -28 -76 -55 -45 -55
31 0 143 65 194 112 77 72 166 195 219 300 48 95 51 108 30 108 -8 0 -33 -33
-55 -72z"/>
<path class="tree" d="M4452 6428 c-16 -16 -15 -28 3 -28 8 0 15 9 15 20 0 23 -2 24 -18 8z"/>
<path class="tree" d="M8570 6115 c-24 -31 -40 -58 -37 -61 6 -6 87 93 87 107 0 16 -7 10
-50 -46z"/>
<path class="tree" d="M8622 6118 c-39 -50 -46 -68 -23 -53 15 9 74 96 68 101 -2 2 -22 -19
-45 -48z"/>
<path class="tree" d="M8459 6083 c-13 -16 -12 -17 4 -4 16 13 21 21 13 21 -2 0 -10 -8 -17
-17z"/>
<path class="tree" d="M3924 6046 c-3 -8 1 -27 10 -43 23 -45 64 -218 75 -317 19 -161 70
-214 308 -317 115 -49 172 -67 413 -131 204 -53 366 -47 505 22 71 34 117 87
248 286 47 71 92 136 101 143 22 18 21 51 -2 51 -9 0 -33 -4 -51 -10 -73 -21
-594 21 -761 61 -113 28 -419 122 -550 170 -58 21 -130 45 -162 54 -31 9 -62
22 -68 30 -16 19 -59 19 -66 1z m411 -179 c160 -52 337 -107 395 -120 178 -43
610 -92 697 -80 60 9 68 -1 35 -49 -16 -24 -51 -79 -77 -123 -54 -91 -124
-168 -176 -195 -116 -60 -251 -64 -457 -15 -366 88 -625 209 -669 312 -7 19
-18 66 -23 106 -10 75 -24 163 -36 231 -6 32 -4 38 7 34 8 -3 145 -48 304
-101z"/>
<path class="tree" d="M4080 5761 c0 -19 123 -90 158 -91 34 0 4 30 -63 63 -78 38 -95 43
-95 28z"/>
<path class="tree" d="M4620 5575 c0 -9 20 -20 53 -30 69 -20 201 -45 238 -45 26 0 33 -8
64 -70 19 -38 35 -76 35 -85 0 -36 141 0 234 59 51 33 83 63 75 71 -3 2 -50
-18 -105 -46 -112 -56 -174 -72 -174 -45 0 24 -39 101 -65 130 -16 18 -35 26
-57 26 -18 0 -87 11 -153 25 -140 29 -145 30 -145 10z"/>
<path class="tree" d="M8184 6018 c-4 -7 -14 -24 -22 -38 -14 -24 -13 -24 3 -5 20 24 37 55
31 55 -3 0 -8 -6 -12 -12z"/>
<path class="tree" d="M4103 5169 c7 -19 18 -38 25 -42 6 -4 12 -18 12 -30 0 -16 3 -18 9
-8 11 18 18 5 26 -52 6 -37 11 -47 22 -43 9 4 17 -1 20 -14 3 -13 14 -20 29
-20 21 0 24 5 24 40 0 22 -4 40 -10 40 -5 0 -18 10 -30 22 l-20 22 -1 -30 c-1
-25 -2 -23 -9 11 -4 22 -7 41 -6 43 4 3 64 -17 105 -35 18 -8 39 -16 45 -17
22 -3 36 -18 36 -37 0 -11 -4 -17 -10 -14 -6 4 -10 -7 -10 -24 0 -30 1 -31 48
-31 60 0 240 26 275 39 27 10 38 40 15 38 -68 -6 -307 59 -466 124 -53 23
-107 43 -119 46 -21 5 -22 4 -10 -28z m348 -144 c8 2 23 -2 34 -11 17 -13 18
-16 5 -24 -8 -5 -34 -10 -57 -10 -39 0 -43 2 -43 24 0 26 18 39 36 24 6 -4 18
-6 25 -3z m89 -25 c0 -5 -7 -10 -15 -10 -8 0 -15 5 -15 10 0 6 7 10 15 10 8 0
15 -4 15 -10z"/>
<path class="tree" d="M4290 4995 c0 -28 4 -35 20 -35 11 0 20 -5 20 -11 0 -5 5 -7 10 -4 6
3 10 20 10 36 0 26 -3 29 -20 24 -14 -5 -20 -2 -20 9 0 9 -4 16 -10 16 -5 0
-10 -16 -10 -35z"/>
<path class="tree" d="M9429 7898 c0 -2 -2 -13 -3 -25 -4 -32 28 -30 42 2 11 23 10 25 -13
25 -14 0 -25 -1 -26 -2z"/>
<path class="tree" d="M9540 7880 c20 -13 40 -13 40 0 0 6 -12 10 -27 10 -22 0 -25 -2 -13
-10z"/>
<path class="tree" d="M9178 5803 c7 -3 16 -2 19 1 4 3 -2 6 -13 5 -11 0 -14 -3 -6 -6z"/>
<path class="tree" d="M7456 4984 c-9 -24 -7 -62 4 -69 6 -4 10 12 10 39 0 48 -4 56 -14 30z"/>
<path class="tree" d="M7447 4853 c-10 -9 -7 -114 3 -138 6 -13 9 7 9 63 1 82 0 88 -12 75z"/>
<path class="tree" d="M7440 4637 c-14 -29 -7 -48 11 -30 6 6 9 21 7 34 l-4 24 -14 -28z"/>
<path class="tree" d="M7750 4611 c-79 -30 -110 -59 -49 -47 46 9 139 53 139 65 0 15 -4 14
-90 -18z"/>
<path class="tree" d="M6001 4103 c1 -82 5 -161 9 -178 4 -18 8 44 9 148 1 112 -3 177 -9
177 -6 0 -10 -55 -9 -147z"/>
<path class="tree" d="M7178 3668 c-26 -9 -47 -43 -34 -55 3 -4 -4 -11 -17 -18 -12 -6 -21
-19 -21 -28 1 -10 -9 -18 -27 -22 -29 -7 -46 -22 -35 -32 8 -8 92 25 106 42 9
11 7 13 -12 9 -19 -4 -18 -2 7 13 44 26 75 55 69 65 -3 4 -1 8 3 8 5 0 17 6
27 13 17 13 16 14 -10 14 -16 0 -41 -4 -56 -9z"/>
<path class="tree" d="M7115 3512 c-48 -17 -167 -91 -149 -93 5 0 -13 -12 -41 -25 l-50 -25
49 6 c56 6 166 56 142 65 -10 3 1 12 30 24 25 10 42 21 39 24 -3 3 9 14 27 24
42 22 17 22 -47 0z"/>
<path class="tree" d="M7020 3375 c-52 -18 -90 -34 -84 -34 15 -1 132 35 176 54 60 26 5 14
-92 -20z"/>
<path class="tree" d="M7106 4733 c-2 -10 -7 -92 -11 -183 -5 -149 -4 -163 10 -146 11 15
15 47 15 137 0 64 3 137 6 163 5 30 3 46 -4 46 -6 0 -13 -8 -16 -17z"/>
<path class="tree" d="M6871 4604 c0 -11 3 -14 6 -6 3 7 2 16 -1 19 -3 4 -6 -2 -5 -13z"/>
<path class="tree" d="M6726 4483 c-13 -136 -18 -293 -8 -293 5 0 12 51 16 113 4 61 9 140
12 175 4 39 3 62 -4 62 -5 0 -13 -26 -16 -57z"/>
<path class="tree" d="M6700 4111 c0 -17 5 -31 10 -31 6 0 10 11 10 24 0 14 -4 28 -10 31
-6 4 -10 -7 -10 -24z"/>
<path class="tree" d="M6310 4268 c0 -40 -5 -180 -10 -312 -5 -131 -6 -245 -1 -253 12 -22
19 80 27 380 5 190 4 257 -5 257 -7 0 -11 -25 -11 -72z"/>
<path class="tree" d="M3725 260 c-17 -7 -15 -9 13 -9 17 -1 32 4 32 9 0 12 -17 12 -45 0z"/>
<path class="tree" d="M6019 13482 c29 -54 228 -216 372 -303 200 -121 378 -190 609 -237
208 -43 230 -45 230 -28 0 10 -19 18 -57 26 -133 26 -273 65 -397 109 -135 49
-222 89 -213 97 3 3 31 1 63 -5 114 -19 232 -22 502 -12 444 17 773 -8 1046
-79 44 -11 82 -18 85 -15 8 9 -18 95 -49 163 -37 78 -71 124 -169 225 -60 61
-82 77 -104 77 -28 0 -26 -3 48 -82 116 -123 240 -308 216 -322 -5 -3 -28 1
-52 9 -74 26 -297 63 -451 74 -188 14 -337 14 -678 0 -298 -13 -497 -3 -568
27 -63 26 -253 158 -328 228 -42 38 -81 66 -93 66 -18 0 -20 -3 -12 -18z"/>
<path class="tree" d="M8386 13492 c5 -5 38 -19 74 -32 95 -33 257 -111 356 -170 160 -97
320 -240 463 -413 62 -75 81 -90 81 -64 0 24 -166 221 -263 313 -156 147 -373
280 -563 343 -86 29 -170 42 -148 23z"/>
<path class="tree" d="M9135 13428 c71 -79 187 -242 228 -324 71 -140 147 -430 149 -565 1
-44 4 -82 8 -84 15 -9 34 28 40 74 l5 46 97 3 c221 6 458 -77 680 -238 71 -52
336 -305 327 -314 -3 -3 -36 15 -74 41 -123 82 -323 166 -547 229 -90 25 -126
27 -102 5 5 -5 84 -34 177 -65 297 -99 462 -183 606 -307 76 -66 81 -69 81
-44 0 81 -300 406 -492 534 -180 120 -330 178 -527 202 -81 10 -113 10 -161 1
-33 -7 -65 -10 -70 -7 -6 3 -10 25 -10 48 0 97 -87 382 -154 500 -43 78 -132
202 -198 280 -45 52 -54 57 -90 57 l-40 0 67 -72z"/>
<path class="tree" d="M8330 13411 c0 -5 82 -50 183 -100 448 -221 740 -490 897 -824 41
-86 120 -309 120 -338 0 -12 -17 -18 -72 -25 -60 -7 -74 -13 -76 -28 -4 -16 0
-18 26 -13 69 14 372 19 487 8 153 -15 241 -33 390 -82 172 -55 313 -130 503
-265 21 -16 22 -16 22 14 0 28 -10 37 -106 102 -179 119 -311 179 -509 230
-147 38 -266 51 -466 52 l-167 0 -7 47 c-18 127 -124 374 -222 518 -172 254
-502 508 -853 656 -126 54 -150 62 -150 48z"/>
<path class="tree" d="M340 13270 c0 -5 5 -10 11 -10 5 0 7 5 4 10 -3 6 -8 10 -11 10 -2 0
-4 -4 -4 -10z"/>
<path class="tree" d="M296 13241 c-4 -7 -5 -15 -2 -18 9 -9 19 4 14 18 -4 11 -6 11 -12 0z"/>
<path class="tree" d="M1103 13237 c-25 -11 -31 -47 -9 -47 9 0 16 -12 18 -27 3 -25 8 -28
48 -32 l45 -5 -55 -5 c-42 -5 -56 -10 -58 -23 -3 -16 6 -18 87 -18 83 0 91 2
91 19 0 10 -7 21 -15 25 -20 7 -19 32 1 40 20 8 9 26 -17 26 -14 0 -19 7 -19
25 0 39 -28 31 -36 -10 -4 -24 -12 -35 -23 -35 -13 0 -16 7 -13 34 4 38 -11
49 -45 33z"/>
<path class="tree" d="M1323 13232 c-33 -16 -46 -52 -19 -52 8 0 16 -16 20 -40 7 -44 33
-58 82 -46 14 4 32 2 39 -4 19 -16 28 4 18 43 -4 17 -8 47 -8 66 0 19 -5 36
-12 38 -12 4 -17 -9 -28 -69 -5 -32 -10 -38 -30 -38 -28 0 -33 22 -13 65 9 21
9 28 -3 39 -12 12 -19 12 -46 -2z"/>
<path class="tree" d="M1498 13178 c-2 -40 -2 -79 0 -86 7 -21 26 -8 38 27 l10 32 20 -22
c22 -24 39 -34 77 -43 39 -9 37 26 -3 41 -16 6 -39 27 -51 47 -11 20 -27 36
-35 36 -8 0 -14 9 -14 20 0 13 -7 20 -19 20 -17 0 -20 -9 -23 -72z"/>
<path class="tree" d="M1616 13228 c-20 -29 -21 -68 -1 -68 18 0 35 31 35 64 0 32 -14 33
-34 4z"/>
<path class="tree" d="M1713 13243 c-25 -5 -33 -43 -9 -43 17 0 26 -21 21 -46 -2 -11 -4
-22 -4 -26 -1 -5 -8 -8 -17 -8 -28 0 -11 -35 20 -38 57 -7 120 41 66 50 -12 2
-21 6 -20 11 0 4 0 18 0 32 0 16 6 25 15 25 8 0 15 9 15 20 0 11 -6 20 -12 20
-7 0 -22 2 -33 4 -11 2 -30 2 -42 -1z"/>
<path class="tree" d="M375 13159 c4 -18 0 -30 -14 -43 -20 -18 -21 -18 -30 7 -5 14 -15 28
-22 33 -19 12 -41 -27 -35 -63 3 -22 -1 -40 -15 -57 -10 -13 -19 -27 -19 -30
0 -8 108 -8 138 0 27 8 29 34 2 41 -19 5 -19 6 3 35 19 26 26 29 56 23 34 -6
34 -6 27 26 -8 41 -12 45 -30 30 -12 -10 -20 -9 -41 5 -26 17 -26 17 -20 -7z"/>
<path class="tree" d="M8980 12758 c0 -7 28 -31 61 -53 156 -103 280 -307 304 -498 5 -36
12 -56 19 -54 18 6 19 43 1 130 -36 183 -149 345 -320 460 -43 29 -65 34 -65
15z"/>
<path class="tree" d="M8602 12649 c-102 -12 -289 -55 -410 -95 -133 -43 -293 -111 -544
-230 -239 -113 -322 -147 -400 -164 -39 -9 -58 -18 -58 -28 0 -39 189 20 440
138 380 178 589 258 802 304 168 38 262 48 388 44 94 -2 110 -1 108 12 -5 27
-175 36 -326 19z"/>
<path class="tree" d="M8653 12499 c-199 -19 -490 -126 -798 -294 -459 -250 -623 -308 -909
-324 -82 -4 -121 -10 -124 -18 -2 -7 2 -13 10 -13 7 0 24 -21 38 -46 103 -195
453 -396 790 -455 146 -26 384 -35 515 -21 138 16 396 83 440 116 39 29 4 28
-97 -3 -179 -54 -232 -62 -438 -68 -284 -7 -484 22 -690 102 -193 74 -321 156
-437 279 l-76 81 109 7 c277 19 499 93 842 281 283 156 537 268 712 313 52 14
150 30 217 36 89 9 123 15 123 25 0 15 -88 16 -227 2z"/>
<path class="tree" d="M7375 12423 c-416 -93 -905 -252 -1215 -396 -252 -116 -390 -188
-390 -202 0 -22 12 -19 108 29 397 199 946 400 1399 511 91 23 154 43 157 51
5 14 -16 17 -59 7z"/>
<path class="tree" d="M5915 12366 c-33 -13 -120 -53 -193 -90 -529 -265 -1037 -689 -1307
-1091 -73 -109 -152 -280 -169 -365 -20 -101 -23 -167 -8 -182 9 -9 12 -8 12
8 0 28 131 132 247 198 257 143 689 293 1068 370 142 29 374 61 382 53 3 -4
-3 -21 -14 -39 l-19 -33 -111 -7 c-220 -14 -532 -79 -713 -149 -72 -27 -110
-52 -98 -64 3 -3 25 4 50 15 114 50 402 115 638 145 69 8 142 18 163 21 27 4
37 2 37 -8 0 -18 -163 -240 -278 -378 -53 -63 -204 -223 -337 -356 -302 -302
-468 -442 -740 -624 -60 -40 -113 -78 -117 -84 -15 -22 14 -17 60 12 38 23 64
30 132 36 554 48 1408 373 1892 721 192 139 558 467 558 502 0 8 -4 13 -9 11
-5 -1 -76 -65 -157 -140 -294 -271 -516 -425 -854 -593 -375 -187 -718 -314
-1111 -410 -133 -32 -330 -67 -337 -60 -2 2 52 41 120 87 405 274 925 802
1182 1202 31 48 63 86 72 86 11 0 13 6 9 19 -4 12 3 35 19 59 66 105 123 322
84 322 -11 0 -17 -15 -21 -50 -3 -28 -21 -85 -39 -128 l-33 -77 -140 -12
c-161 -15 -302 -40 -500 -89 -481 -120 -844 -276 -1007 -433 -38 -35 -68 -58
-68 -50 1 37 34 148 64 215 79 169 219 357 431 573 340 348 763 649 1140 811
50 22 91 46 93 55 4 19 -1 19 -73 -9z"/>
<path class="tree" d="M9690 11696 c0 -7 18 -51 39 -97 72 -153 141 -423 162 -636 15 -141
5 -563 -15 -713 -57 -411 -143 -704 -335 -1134 -74 -165 -78 -176 -61 -176 20
0 171 328 271 592 84 221 160 565 189 847 13 134 13 475 -1 599 -23 216 -92
458 -178 631 -47 93 -71 122 -71 87z"/>
<path class="tree" d="M9644 11648 c67 -242 67 -819 0 -1308 -37 -276 -88 -490 -173 -725
-55 -150 -56 -155 -40 -155 12 0 45 72 89 196 146 411 207 771 217 1290 6 283
-2 434 -31 574 -25 118 -36 150 -53 150 -11 0 -14 -6 -9 -22z"/>
<path class="tree" d="M9240 11569 c-267 -189 -647 -301 -1070 -315 -182 -6 -205 -10 -177
-25 29 -17 359 -12 482 6 215 32 438 102 595 186 84 46 245 156 274 188 39 43
-16 22 -104 -40z"/>
<path class="tree" d="M4349 11391 c-190 -87 -453 -162 -704 -201 -168 -26 -196 -32 -198
-45 -6 -34 438 53 668 131 110 37 276 109 317 138 37 26 8 18 -83 -23z"/>
<path class="tree" d="M7850 11190 c0 -27 105 -321 155 -435 80 -181 187 -392 192 -379 4
13 -27 92 -145 364 -44 102 -101 247 -127 323 -30 86 -53 137 -61 137 -8 0
-14 -4 -14 -10z"/>
<path class="tree" d="M7740 11183 c0 -28 64 -253 95 -333 43 -113 121 -262 180 -346 49
-68 127 -143 133 -126 2 6 -19 39 -46 74 -129 166 -223 362 -297 617 -23 80
-38 117 -49 119 -9 2 -16 0 -16 -5z"/>
<path class="tree" d="M4229 11069 c-25 -30 -78 -94 -119 -144 -106 -129 -339 -359 -450
-445 -263 -202 -651 -426 -843 -486 -41 -13 -57 -22 -55 -33 3 -14 27 -16 152
-19 173 -3 302 15 507 72 316 87 571 206 775 361 82 63 244 213 244 226 0 22
-32 4 -94 -53 -180 -166 -380 -286 -656 -391 -266 -102 -629 -191 -748 -185
l-57 3 90 34 c210 79 498 248 710 417 161 129 434 432 561 622 49 73 38 87
-17 21z"/>
<path class="tree" d="M5386 10897 c-43 -91 -180 -317 -248 -411 -28 -39 -90 -118 -138
-176 -102 -124 -111 -136 -82 -121 27 14 149 147 227 246 77 98 177 260 243
391 61 123 68 144 48 144 -8 0 -29 -30 -50 -73z"/>
<path class="tree" d="M8090 10916 c0 -7 13 -43 30 -79 42 -93 76 -217 89 -322 12 -107 0
-360 -23 -480 -35 -177 -114 -411 -225 -668 -12 -27 -21 -58 -21 -70 0 -21 1
-21 20 3 48 62 202 463 252 656 32 126 33 133 33 341 0 117 3 209 7 205 13
-13 57 -197 74 -312 24 -157 24 -432 0 -560 -27 -148 -79 -340 -141 -520 -75
-219 -75 -219 -65 -225 15 -10 47 65 119 282 127 382 156 539 148 797 -5 181
-21 288 -61 427 -31 107 -147 404 -188 482 -30 55 -48 72 -48 43z"/>
<path class="tree" d="M10336 10891 c-3 -4 -1 -23 4 -42 5 -19 25 -122 45 -229 70 -382 159
-694 264 -932 46 -101 109 -216 145 -263 15 -20 15 -20 16 4 0 13 -37 98 -83
190 -129 257 -206 509 -303 988 -26 125 -49 240 -51 255 -5 26 -28 44 -37 29z"/>
<path class="tree" d="M7139 10785 c-256 -202 -517 -362 -893 -546 -223 -109 -484 -223
-696 -305 -104 -41 -164 -74 -133 -74 16 0 231 77 398 143 566 222 997 467
1373 780 78 65 101 91 90 103 -3 2 -66 -43 -139 -101z"/>
<path class="tree" d="M5133 10833 c-74 -215 -219 -494 -346 -666 -72 -97 -82 -117 -62
-117 18 0 139 160 221 292 64 103 130 239 179 368 44 117 49 140 30 140 -9 0
-18 -8 -22 -17z"/>
<path class="tree" d="M8450 10571 c0 -5 18 -28 41 -52 68 -74 161 -201 186 -256 13 -29 32
-84 41 -123 10 -42 21 -70 29 -70 28 0 2 126 -47 225 -63 129 -250 336 -250
276z"/>
<path class="tree" d="M6545 10084 c-301 -196 -613 -346 -841 -404 -23 -6 -45 -18 -48 -26
-5 -14 -1 -16 33 -10 120 19 411 138 614 252 91 51 325 200 370 237 17 14 23
37 10 37 -5 -1 -66 -39 -138 -86z"/>
<path class="tree" d="M10210 10024 c0 -8 16 -54 35 -100 116 -279 269 -488 467 -636 96
-72 98 -73 98 -51 0 11 -28 40 -68 70 -100 76 -239 225 -310 332 -64 95 -130
225 -173 338 -22 58 -49 84 -49 47z"/>
<path class="tree" d="M6413 9761 c-416 -408 -952 -804 -1225 -906 -27 -10 -48 -24 -48 -31
0 -20 11 -18 98 16 268 103 756 467 1155 860 192 190 237 241 210 240 -5 -1
-90 -81 -190 -179z"/>
<path class="tree" d="M6597 9813 c-116 -129 -213 -222 -387 -370 -123 -104 -354 -280 -414
-315 -44 -27 -60 -48 -33 -48 61 0 470 316 685 528 124 123 282 302 282 319 0
28 -22 9 -133 -114z"/>
<path class="tree" d="M2517 9853 c-76 -106 -121 -179 -153 -249 -38 -82 -39 -84 -21 -84 7
0 28 30 46 68 18 37 65 117 105 177 93 141 90 135 72 135 -8 0 -30 -21 -49
-47z"/>
<path class="tree" d="M3341 9805 c-68 -41 -166 -91 -217 -111 -88 -34 -106 -46 -86 -58 10
-6 112 29 200 69 39 19 72 32 72 30 0 -2 -22 -17 -50 -34 -59 -36 -67 -58 -13
-36 52 22 105 65 99 80 -3 8 23 31 65 59 38 25 69 53 69 61 0 8 -3 15 -7 15
-5 -1 -64 -34 -132 -75z"/>
<path class="tree" d="M2551 9820 c-76 -106 -173 -325 -212 -485 -26 -102 -36 -357 -20
-465 16 -103 60 -240 77 -240 19 0 18 13 -13 137 -24 95 -27 127 -27 273 0
256 42 426 165 674 38 77 67 141 65 144 -3 2 -18 -15 -35 -38z"/>
<path class="tree" d="M6643 9628 c-276 -396 -610 -801 -868 -1049 -44 -43 -77 -81 -73 -85
36 -35 452 413 740 799 130 174 298 420 298 437 0 28 -26 0 -97 -102z"/>
<path class="tree" d="M7411 9613 c-69 -139 -211 -571 -211 -645 0 -60 24 -20 52 88 38 146
91 303 151 449 27 66 51 130 54 143 10 42 -17 22 -46 -35z"/>
<path class="tree" d="M8730 9484 c0 -38 -54 -257 -90 -366 -108 -324 -303 -632 -631 -995
-61 -67 -142 -148 -180 -179 -64 -54 -85 -84 -58 -84 6 0 29 16 52 35 23 20
53 38 67 41 136 30 345 137 545 278 217 153 363 282 487 428 122 143 152 197
47 83 -201 -218 -435 -413 -684 -570 -99 -62 -365 -198 -373 -190 -3 3 51 62
120 133 368 376 596 766 692 1187 37 163 42 215 22 215 -9 0 -16 -7 -16 -16z"/>
<path class="tree" d="M2129 9428 c-10 -23 -14 -78 -14 -178 0 -149 7 -200 27 -200 8 0 9
28 5 98 -6 94 4 259 18 295 13 33 -22 18 -36 -15z"/>
<path class="tree" d="M7555 9308 c-51 -295 -75 -518 -75 -697 0 -185 9 -271 27 -271 13 0
14 23 8 158 -8 174 -1 269 45 601 35 248 34 241 15 241 -8 0 -16 -13 -20 -32z"/>
<path class="tree" d="M9259 9038 c-88 -177 -158 -268 -379 -492 -207 -211 -246 -279 -62
-108 266 248 370 374 462 567 54 111 68 155 51 155 -6 0 -38 -55 -72 -122z"/>
<path class="tree" d="M3165 8998 c-11 -6 -70 -44 -130 -84 -131 -86 -258 -212 -327 -324
-50 -82 -87 -174 -74 -187 10 -10 30 17 68 92 86 170 214 303 421 440 48 32
87 62 87 67 0 11 -21 10 -45 -4z"/>
<path class="tree" d="M9157 3474 c-17 -17 13 -24 109 -24 80 0 105 3 102 13 -5 13 -198 23
-211 11z"/>
<path class="tree" d="M9180 3433 c-38 -7 -47 -21 -24 -37 12 -9 23 -11 30 -5 8 6 13 6 16
0 4 -12 231 -26 255 -16 15 7 13 9 -12 15 -16 4 -52 8 -79 9 -42 1 -47 3 -36
16 11 13 6 15 -36 15 -27 0 -58 2 -69 4 -11 2 -31 2 -45 -1z"/>
<path class="tree" d="M10057 3388 c-3 -13 -11 -79 -17 -148 -6 -69 -12 -134 -13 -145 -1
-11 5 -21 14 -23 13 -2 17 7 18 52 0 30 5 85 11 123 5 37 10 89 10 116 0 49
-14 64 -23 25z"/>
<path class="tree" d="M10106 3378 c-6 -29 -15 -129 -21 -238 -6 -101 -13 -140 -26 -140 -5
0 -9 11 -9 25 0 16 -6 25 -15 25 -13 0 -20 -18 -16 -42 0 -5 -6 -8 -15 -8 -11
0 -14 5 -10 16 7 19 -12 47 -25 38 -5 -3 -9 -14 -9 -24 0 -10 -4 -21 -9 -25
-6 -3 -9 7 -8 22 2 24 -2 28 -28 28 -45 2 -198 16 -215 20 -8 2 -64 7 -125 10
-60 4 -113 11 -116 17 -12 20 -29 -3 -26 -35 2 -20 8 -32 17 -32 8 0 14 8 14
18 -1 12 6 17 23 17 17 0 23 -5 21 -17 -2 -10 4 -19 15 -21 12 -2 17 3 18 20
l1 23 7 -24 c9 -33 31 -39 38 -10 6 21 7 22 13 3 5 -13 16 -19 36 -19 24 0 29
-4 27 -22 -2 -17 2 -23 18 -23 16 0 19 4 14 20 -5 17 -2 20 24 20 26 0 30 -4
28 -22 -2 -18 3 -22 32 -24 25 -1 35 3 38 16 6 23 33 35 33 15 0 -8 -6 -15
-12 -15 -9 0 -8 -4 2 -10 24 -15 40 -12 40 9 0 10 7 22 16 25 8 3 13 2 9 -3
-8 -14 5 -41 21 -41 8 0 14 5 14 12 0 6 6 4 13 -6 12 -16 16 -17 36 -5 18 12
23 12 31 0 7 -12 11 -12 24 -2 13 11 19 11 31 1 12 -10 18 -10 30 0 12 10 18
10 29 1 8 -7 30 -11 48 -9 28 3 33 7 36 32 2 16 -2 33 -10 37 -11 7 -10 11 2
18 8 6 15 28 17 53 3 46 21 196 29 241 4 20 2 27 -9 27 -11 0 -18 -18 -25 -62
-7 -50 -10 -55 -11 -25 -2 70 -19 37 -26 -50 -3 -49 -8 -92 -11 -98 -6 -14 6
216 12 238 4 11 0 17 -10 17 -18 0 -23 -35 -30 -207 -5 -119 -5 -122 16 -125
34 -5 36 -30 2 -26 -24 2 -30 -1 -32 -19 -2 -13 -7 -23 -12 -23 -14 0 -17 47
-9 142 21 242 22 268 11 268 -7 0 -14 -10 -16 -22z m-436 -328 c0 -5 -6 -10
-14 -10 -8 0 -18 5 -21 10 -3 6 3 10 14 10 12 0 21 -4 21 -10z m80 -10 c0 -5
-2 -10 -4 -10 -3 0 -8 5 -11 10 -3 6 -1 10 4 10 6 0 11 -4 11 -10z"/>
<path class="tree" d="M10326 3348 c-5 -22 -26 -233 -30 -308 -1 -19 -4 -39 -5 -45 -9 -29
0 -43 28 -41 16 1 33 4 37 8 3 4 13 0 21 -8 21 -21 25 -14 28 56 2 34 7 85 10
113 7 45 6 50 -8 39 -10 -8 -17 -41 -22 -97 -7 -83 -25 -119 -25 -50 0 34 26
239 35 283 4 15 1 22 -9 22 -17 0 -23 -21 -38 -147 -6 -57 -14 -103 -18 -103
-3 0 -1 39 5 88 26 191 27 212 11 212 -9 0 -18 -10 -20 -22z m14 -322 c0 -8
-4 -18 -10 -21 -5 -3 -10 3 -10 14 0 12 5 21 10 21 6 0 10 -6 10 -14z"/>
<path class="tree" d="M9171 3344 c0 -11 3 -14 6 -6 3 7 2 16 -1 19 -3 4 -6 -2 -5 -13z"/>
<path class="tree" d="M9199 3348 c-1 -7 0 -21 1 -31 1 -15 -3 -17 -18 -13 -24 8 -41 -12
-21 -25 10 -6 11 -9 2 -9 -7 0 -13 -7 -13 -15 0 -8 6 -15 13 -15 6 0 22 -3 35
-6 19 -5 22 -2 22 20 0 26 13 35 24 17 4 -5 0 -11 -6 -14 -9 -3 -10 -8 -3 -15
10 -10 50 -16 205 -27 41 -3 163 -15 270 -26 107 -11 212 -21 233 -23 21 -2
41 -7 45 -11 4 -4 -31 -5 -78 -1 -412 31 -514 36 -522 24 -6 -10 -10 -10 -17
1 -5 8 -18 12 -30 8 -12 -3 -21 -1 -21 4 0 14 -28 11 -33 -3 -4 -10 -8 -10
-15 1 -6 8 -18 11 -31 6 -15 -4 -23 -1 -28 11 -6 15 -7 15 -21 -2 -10 -13 -16
-15 -19 -6 -3 6 -9 10 -14 6 -12 -7 -12 -44 1 -44 6 0 10 5 10 12 0 6 7 3 16
-8 11 -13 17 -15 20 -6 7 14 34 16 34 2 0 -15 30 -12 30 3 1 7 6 5 14 -5 15
-21 32 -23 39 -5 4 10 6 10 6 0 1 -15 31 -18 31 -3 0 15 27 12 33 -4 4 -9 24
-13 64 -14 32 0 148 -10 258 -22 110 -12 209 -23 220 -24 11 0 26 -5 33 -9 15
-10 47 12 35 24 -8 7 -38 10 -215 25 -43 4 -78 10 -78 13 0 4 39 3 88 -1 48
-4 113 -10 145 -12 51 -5 57 -4 57 13 0 11 6 22 13 24 9 4 9 8 -2 15 -15 11
-124 24 -401 48 -102 9 -187 18 -189 20 -12 12 19 12 159 2 132 -10 223 -7
209 6 -4 4 -406 36 -503 41 l-61 2 3 32 c1 22 -2 31 -13 31 -8 0 -16 -6 -16
-12z m-12 -90 c-3 -8 -6 -5 -6 6 -1 11 2 17 5 13 3 -3 4 -12 1 -19z m113 2 c0
-5 -6 -10 -14 -10 -8 0 -18 5 -21 10 -3 6 3 10 14 10 12 0 21 -4 21 -10z m90
0 c15 0 21 -3 14 -10 -12 -12 -84 -1 -84 12 0 6 10 8 23 4 12 -3 33 -6 47 -6z"/>
<path class="tree" d="M9242 3341 c2 -10 19 -15 53 -17 28 -2 109 -8 180 -14 272 -22 305
-23 305 -13 0 15 -28 21 -175 33 -287 24 -366 27 -363 11z"/>
<path class="tree" d="M10766 3163 c-12 -72 -19 -303 -10 -303 9 0 44 259 44 318 0 37 -27
25 -34 -15z"/>
<path class="tree" d="M10262 3160 c0 -19 2 -27 5 -17 2 9 2 25 0 35 -3 9 -5 1 -5 -18z"/>
<path class="tree" d="M9180 3105 c0 -8 7 -15 15 -15 8 0 15 7 15 15 0 8 -7 15 -15 15 -8 0
-15 -7 -15 -15z"/>
<path class="tree" d="M9235 3110 c-3 -6 1 -13 10 -16 19 -8 30 0 20 15 -8 14 -22 14 -30 1z"/>
<path class="tree" d="M9287 3113 c-3 -5 -2 -23 0 -40 6 -36 23 -45 23 -13 0 11 5 20 10 20
6 0 10 -9 10 -20 0 -11 5 -20 10 -20 6 0 10 6 10 13 0 6 3 23 7 36 5 21 3 23
-15 19 -12 -4 -25 -2 -28 3 -6 11 -21 12 -27 2z"/>
<path class="tree" d="M10247 3113 c-4 -7 -7 -32 -7 -55 1 -24 0 -54 -2 -67 -2 -13 2 -26 9
-28 7 -3 12 15 15 49 4 62 -4 119 -15 101z"/>
<path class="tree" d="M9386 3102 c-8 -13 9 -67 20 -65 13 4 11 66 -3 70 -6 2 -14 0 -17 -5z"/>
<path class="tree" d="M9557 3003 c-12 -11 -8 -23 8 -23 8 0 15 7 15 15 0 16 -12 20 -23 8z"/>
<path class="tree" d="M9613 3003 c-18 -7 -16 -23 2 -23 8 0 15 7 15 15 0 8 -1 15 -2 14 -2
0 -9 -3 -15 -6z"/>
<path class="tree" d="M9745 2950 c-3 -5 1 -10 9 -10 9 0 16 5 16 10 0 6 -4 10 -9 10 -6 0
-13 -4 -16 -10z"/>
<path class="tree" d="M9790 2950 c0 -5 5 -10 10 -10 6 0 10 5 10 10 0 6 -4 10 -10 10 -5 0
-10 -4 -10 -10z"/>
<path class="tree" d="M9850 2945 c0 -16 16 -20 24 -6 3 5 -1 11 -9 15 -9 3 -15 0 -15 -9z"/>
<path class="tree" d="M9910 2945 c0 -8 7 -15 15 -15 8 0 15 4 15 9 0 5 -7 11 -15 15 -9 3
-15 0 -15 -9z"/>
<path class="tree" d="M9962 2941 c4 -13 18 -16 19 -4 0 4 -5 9 -11 12 -7 2 -11 -2 -8 -8z"/>
<path class="tree" d="M10016 2942 c-7 -12 4 -52 14 -52 12 0 23 38 15 50 -7 12 -22 13 -29
2z"/>
<path class="tree" d="M10076 2943 c-12 -13 -6 -53 9 -53 9 0 15 9 15 24 0 26 -12 40 -24
29z"/>
<path class="tree" d="M10486 2853 c-11 -11 -6 -23 9 -23 8 0 15 4 15 9 0 13 -16 22 -24 14z"/>
<path class="tree" d="M9910 2677 c0 -21 27 -24 379 -37 183 -7 298 -7 304 -1 16 16 -162
32 -520 47 -144 6 -163 5 -163 -9z"/>
<path class="tree" d="M10217 2596 c-4 -10 -1 -16 7 -16 40 0 554 -31 569 -34 11 -3 17 2
17 13 0 16 -19 19 -172 29 -380 26 -414 26 -421 8z"/>
<path class="tree" d="M10290 2532 c0 -7 1 -12 3 -12 73 -7 445 -30 475 -30 29 0 42 4 42
13 0 15 -54 20 -367 33 -113 5 -153 4 -153 -4z"/>
<path class="tree" d="M10246 2471 c7 -7 76 -15 185 -21 96 -5 220 -12 277 -16 87 -6 102
-4 102 8 0 19 -73 26 -365 34 -160 5 -207 4 -199 -5z"/>
<path class="tree" d="M10026 2435 c4 -8 14 -15 23 -15 72 0 670 -46 729 -56 29 -4 33 -2
30 13 -4 20 -68 28 -463 58 -263 20 -326 20 -319 0z"/>
<path class="tree" d="M9371 2401 c-26 -17 0 -31 58 -31 54 0 142 -6 461 -30 74 -6 244 -22
377 -37 210 -22 288 -24 272 -8 -14 13 -596 75 -899 94 -91 6 -185 13 -210 16
-25 3 -51 1 -59 -4z"/>
<path class="tree" d="M7067 2352 c-50 -3 -57 -5 -47 -18 7 -7 29 -14 48 -14 20 0 72 -5
116 -10 45 -6 158 -20 251 -31 94 -11 181 -23 195 -26 22 -5 23 -4 10 10 -8 9
-37 21 -65 26 l-50 10 65 -4 c36 -3 103 -8 149 -12 69 -5 83 -4 79 8 -6 19
-46 25 -293 43 -255 18 -377 23 -458 18z"/>
<path class="tree" d="M9230 2348 c0 -13 24 -16 138 -22 449 -22 811 -55 1240 -112 107 -14
196 -23 200 -20 15 16 -26 27 -188 50 -347 50 -801 91 -1247 112 -124 6 -143
5 -143 -8z"/>
<path class="tree" d="M7070 2280 c-36 -4 -92 -14 -125 -23 -33 -9 -159 -35 -280 -57 -238
-45 -532 -108 -769 -165 -239 -57 -790 -206 -800 -216 -21 -20 8 -21 87 -5 45
10 192 44 327 76 135 32 421 97 635 145 215 47 428 95 475 107 54 13 102 19
135 15 27 -2 42 -2 33 0 -25 6 -22 20 5 26 49 12 189 19 196 10 3 -5 119 -17
256 -27 138 -9 266 -20 285 -23 32 -5 34 -4 19 11 -8 9 -44 21 -79 27 -36 6
-68 15 -71 21 -5 8 -39 9 -108 5 -56 -3 -100 -3 -97 1 2 4 -51 6 -117 5 l-122
-3 55 19 c71 25 143 25 360 1 96 -11 189 -19 205 -19 l30 1 -31 13 c-18 8 -92
19 -165 25 -74 6 -163 18 -199 26 -36 8 -67 13 -70 13 -3 -1 -34 -5 -70 -9z"/>
<path class="tree" d="M10558 2283 c6 -2 18 -2 25 0 6 3 1 5 -13 5 -14 0 -19 -2 -12 -5z"/>
<path class="tree" d="M9440 2256 c0 -10 28 -15 118 -21 355 -20 875 -68 1111 -101 130 -18
141 -18 141 1 0 8 -2 15 -3 15 -2 0 -93 11 -203 25 -260 32 -572 61 -864 80
-290 19 -300 19 -300 1z"/>
<path class="tree" d="M9510 2155 c0 -8 8 -15 19 -15 70 0 1067 -65 1139 -75 23 -3 32 0 32
10 0 8 -14 16 -32 19 -81 14 -996 76 -1115 76 -32 0 -43 -4 -43 -15z"/>
<path class="tree" d="M6840 2152 c0 -5 84 -14 188 -21 103 -6 254 -18 336 -27 141 -14 177
-13 147 5 -18 12 -94 20 -341 36 -247 17 -330 18 -330 7z"/>
<path class="tree" d="M6636 2111 c-6 -10 71 -17 274 -26 172 -8 480 -33 564 -46 44 -7 72
-7 78 -1 16 16 -1 21 -133 36 -291 35 -771 58 -783 37z"/>
<path class="tree" d="M9660 2072 c0 -18 27 -20 300 -27 140 -3 324 -10 409 -16 85 -5 156
-7 159 -4 26 26 -166 44 -575 52 -215 4 -293 3 -293 -5z"/>
<path class="tree" d="M6895 2050 c-13 -6 -15 -9 -5 -9 460 -22 989 -121 1770 -331 34 -9
39 -14 45 -50 8 -50 25 -52 25 -4 0 51 23 39 31 -17 3 -24 7 -34 7 -22 3 30
12 53 23 53 5 0 9 -47 9 -105 0 -91 2 -104 16 -98 13 5 15 21 13 96 -2 64 0
92 9 95 9 3 12 -25 13 -105 3 -205 13 -326 28 -331 12 -4 13 25 8 189 -4 107
-8 203 -9 213 -3 22 20 34 26 14 3 -7 8 -79 11 -160 5 -105 11 -152 21 -165
13 -16 14 3 8 151 -6 162 -6 169 12 161 11 -4 28 -10 39 -13 38 -10 42 -22 49
-135 8 -137 16 -187 27 -187 13 0 11 165 -2 234 -11 63 -7 76 18 60 13 -8 16
-24 14 -70 -2 -45 2 -64 13 -73 14 -12 16 -6 16 58 0 39 3 71 6 71 3 0 14 -5
25 -10 16 -9 19 -22 19 -88 0 -85 7 -122 23 -122 6 0 8 34 5 95 -5 87 -4 95
13 95 10 0 21 -6 25 -12 5 -7 10 -78 12 -158 3 -137 13 -186 28 -146 4 10 4
80 2 157 -3 76 -4 139 -3 139 1 0 40 -13 86 -29 l84 -29 11 -149 c7 -81 17
-262 24 -401 9 -173 17 -251 24 -249 20 7 1 544 -25 716 -5 35 -8 65 -6 68 3
2 16 1 29 -2 l25 -6 6 -217 c7 -280 27 -772 33 -840 4 -34 10 -52 17 -49 15 5
12 219 -9 572 -8 138 -14 309 -14 381 l0 131 25 -5 c14 -2 27 -7 29 -11 4 -6
21 -400 32 -733 5 -161 8 -188 22 -188 13 0 14 27 9 243 -7 241 -21 512 -33
615 -5 48 -4 53 13 50 16 -3 19 -21 26 -208 12 -280 30 -293 25 -17 -3 142 -1
206 6 204 6 -2 14 -26 18 -53 11 -79 38 -464 38 -545 0 -110 10 -179 26 -179
16 0 16 -16 4 235 -10 198 -33 449 -46 499 -5 20 -2 26 9 26 9 0 18 -4 21 -9
17 -27 66 -543 66 -697 0 -64 3 -83 15 -88 13 -5 15 11 15 102 0 193 -27 500
-56 640 -5 25 -3 32 10 32 42 0 61 -95 77 -395 7 -130 14 -202 22 -207 6 -4
13 -6 14 -4 8 8 -20 460 -32 511 -7 33 -12 61 -10 63 1 2 14 0 29 -4 25 -6 26
-9 26 -78 0 -40 3 -155 7 -254 5 -152 9 -182 21 -182 13 0 14 31 8 246 -7 233
-6 245 11 242 16 -3 18 -19 21 -173 1 -94 5 -177 9 -185 11 -26 21 69 22 207
1 129 1 131 22 126 21 -6 22 -8 15 -175 -5 -105 -4 -168 2 -168 13 0 20 51 28
198 5 82 11 121 18 119 7 -2 10 -30 9 -73 -1 -38 -5 -270 -9 -515 -6 -408 -5
-446 10 -446 14 0 16 25 16 235 0 228 18 773 26 781 2 2 10 -1 17 -7 10 -9 11
-28 6 -79 -12 -117 -33 -583 -26 -590 18 -18 21 13 43 505 4 83 10 152 13 152
3 0 25 -7 48 -16 39 -15 66 -14 51 2 -18 17 -638 250 -953 357 -707 240 -1200
366 -1930 491 -223 38 -531 57 -580 36z"/>
<path class="tree" d="M9810 1985 c0 -8 8 -15 18 -15 9 0 170 -7 357 -15 187 -8 346 -15
353 -15 6 0 12 6 12 14 0 19 -52 23 -397 36 -352 13 -343 13 -343 -5z"/>
<path class="tree" d="M4997 1827 c-58 -43 -58 -43 -190 -55 -72 -7 -133 -15 -136 -18 -3
-2 0 -9 6 -15 9 -9 32 -9 88 0 42 6 88 11 103 11 l27 -1 -25 -14 c-15 -8 -53
-14 -95 -15 -112 0 -175 -11 -175 -28 0 -12 9 -13 48 -8 118 16 165 19 159 9
-4 -6 -59 -14 -122 -18 -63 -4 -115 -11 -115 -16 0 -12 96 -12 137 0 39 11 53
-3 21 -20 -15 -8 -58 -12 -121 -10 -101 2 -137 -3 -137 -21 0 -7 33 -9 105 -4
66 5 105 4 105 -2 0 -15 -57 -32 -107 -32 -24 0 -88 -7 -143 -16 -79 -14 -99
-20 -103 -35 -4 -15 -15 -19 -50 -19 -46 0 -68 -12 -46 -26 14 -8 228 16 235
27 3 5 -16 10 -43 10 -44 1 -40 3 42 20 115 23 142 24 126 5 -7 -8 -23 -17
-36 -20 -14 -4 -25 -13 -25 -21 0 -9 -9 -15 -21 -15 -12 0 -23 -8 -26 -18 -2
-10 -18 -23 -35 -30 -16 -6 -27 -15 -24 -20 10 -17 -47 -30 -129 -30 l-80 0
93 16 c50 8 92 19 92 24 0 10 -6 10 -131 -2 -169 -16 -189 -20 -189 -36 0 -9
11 -14 30 -14 20 0 30 -5 30 -15 0 -18 13 -18 110 0 41 7 84 15 94 17 25 4 32
-19 8 -26 -21 -7 -45 -28 -164 -144 -71 -69 -93 -102 -69 -102 5 0 53 38 106
84 91 80 99 85 153 91 90 10 113 16 109 28 -5 13 -11 13 -77 2 -40 -7 -43 -6
-31 9 7 9 19 16 26 16 7 0 20 11 29 25 9 14 22 25 29 25 8 0 23 11 35 25 12
14 28 25 37 25 8 0 19 9 25 20 6 11 16 20 22 20 6 0 21 10 34 23 40 38 56 52
163 128 232 166 301 220 301 234 0 24 -21 17 -83 -28z m-814 -454 c-7 -2 -19
-2 -25 0 -7 3 -2 5 12 5 14 0 19 -2 13 -5z"/>
<path class="tree" d="M10150 1858 c0 -20 30 -26 203 -38 78 -5 170 -12 205 -15 52 -5 62
-3 62 10 0 9 -6 18 -12 20 -7 3 -95 9 -195 15 -100 5 -200 13 -223 16 -32 5
-40 3 -40 -8z"/>
<path class="tree" d="M10200 1804 c0 -15 68 -27 125 -22 38 4 39 4 15 15 -40 17 -140 22
-140 7z"/>
<path class="tree" d="M5594 1648 c-11 -17 9 -25 106 -42 330 -58 705 -178 961 -306 344
-173 742 -477 1008 -770 117 -129 355 -430 402 -507 12 -20 59 -33 59 -17 0
19 -176 262 -294 404 -290 352 -652 655 -1041 874 -292 163 -693 296 -1073
354 -74 12 -125 15 -128 10z"/>
<path class="tree" d="M8990 1533 c0 -32 3 -109 7 -170 5 -91 9 -113 21 -113 13 0 14 17 9
123 -8 148 -17 217 -28 217 -5 0 -9 -26 -9 -57z"/>
<path class="tree" d="M9334 1338 c3 -79 9 -169 13 -201 5 -50 8 -57 20 -45 11 12 12 40 3
169 -12 176 -18 219 -33 219 -7 0 -8 -46 -3 -142z"/>
<path class="tree" d="M4335 1463 c-61 -5 -89 -13 -79 -22 11 -10 165 7 179 20 9 9 -15 10
-100 2z"/>
<path class="tree" d="M9406 1238 c6 -215 7 -228 24 -228 6 0 10 57 9 163 -1 183 -8 259
-26 264 -10 4 -11 -42 -7 -199z"/>
<path class="tree" d="M9580 1383 c0 -10 7 -108 15 -218 8 -110 15 -228 15 -262 0 -35 4
-63 10 -63 17 0 6 335 -16 513 -6 44 -24 68 -24 30z"/>
<path class="tree" d="M10715 1205 c-49 -7 -138 -18 -197 -25 -78 -9 -108 -17 -108 -26 0
-8 7 -14 17 -14 15 0 16 -19 9 -222 -3 -123 -11 -286 -16 -363 -5 -77 -13
-233 -16 -347 -7 -190 -6 -208 9 -208 10 0 17 6 17 14 0 8 9 182 20 388 11
205 21 455 22 555 l3 183 34 0 33 0 -6 -122 c-3 -68 -11 -247 -17 -398 -6
-151 -14 -342 -18 -425 -6 -100 -5 -157 2 -170 10 -19 11 -19 18 5 4 14 15
200 23 415 9 215 19 461 22 548 6 138 9 158 23 155 11 -2 16 -13 15 -33 -10
-216 -26 -526 -34 -625 -15 -204 -16 -273 -4 -277 7 -2 14 19 18 53 7 65 31
481 42 722 5 125 9 162 20 162 11 0 12 -27 8 -137 -8 -231 -24 -564 -30 -645
-4 -52 -3 -78 4 -78 24 0 50 342 55 735 l2 130 63 8 c57 8 62 11 62 33 0 13
-1 24 -2 23 -2 -1 -43 -7 -93 -14z"/>
<path class="tree" d="M10270 1013 c0 -127 -21 -477 -36 -616 -6 -49 -4 -57 10 -57 9 0 16
6 16 13 0 6 7 82 15 167 8 85 18 262 22 393 6 217 5 237 -10 237 -15 0 -17
-16 -17 -137z"/>
<path class="tree" d="M10337 868 c-4 -150 -11 -332 -18 -404 -6 -71 -9 -143 -7 -160 3 -28
4 -28 15 -8 33 58 58 831 27 841 -7 3 -13 -79 -17 -269z"/>
<path class="tree" d="M10736 973 c-4 -82 -15 -251 -26 -378 -33 -403 -35 -435 -17 -435 18
0 20 14 42 345 22 313 31 615 18 615 -6 0 -13 -60 -17 -147z"/>
<path class="tree" d="M10801 979 c0 -69 -7 -218 -15 -330 -26 -359 -29 -479 -12 -479 8 0
16 15 20 38 8 48 20 851 13 877 -2 11 -5 -37 -6 -106z"/>
<path class="tree" d="M6582 868 c3 -9 30 -14 76 -16 60 -2 72 0 72 13 0 12 -14 15 -76 15
-56 0 -75 -3 -72 -12z"/>
<path class="tree" d="M6590 825 c0 -12 18 -15 100 -15 82 0 100 3 100 15 0 12 -18 15 -100
15 -82 0 -100 -3 -100 -15z"/>
<path class="tree" d="M6706 782 c-9 -2 -15 -9 -13 -15 5 -15 426 -22 440 -8 6 6 -15 11
-54 15 -74 7 -348 13 -373 8z"/>
<path class="tree" d="M3968 731 c-67 -13 -91 -23 -107 -42 -23 -27 -26 -39 -11 -39 10 0
242 44 288 55 28 7 29 25 1 25 -11 0 -17 5 -14 10 9 15 -57 11 -157 -9z"/>
<path class="tree" d="M6810 705 c0 -11 11 -15 38 -15 20 0 127 -5 237 -10 116 -6 203 -6
208 -1 14 14 -16 19 -157 31 -197 15 -326 14 -326 -5z"/>
<path class="tree" d="M3958 652 c-70 -12 -98 -20 -98 -30 0 -10 7 -12 23 -9 12 3 66 14
120 23 53 9 97 21 97 26 0 10 -23 9 -142 -10z"/>
<path class="tree" d="M6930 662 c0 -16 27 -22 103 -22 40 0 154 -5 255 -11 174 -11 214 -9
182 11 -26 16 -540 37 -540 22z"/>
<path class="tree" d="M6775 620 c-4 -6 -5 -13 -4 -15 2 -2 144 -8 314 -14 171 -7 348 -14
395 -18 69 -4 83 -3 73 7 -19 20 -92 28 -323 34 -118 4 -268 9 -332 11 -78 4
-119 2 -123 -5z"/>
<path class="tree" d="M6534 568 c-9 -15 24 -19 258 -29 134 -6 277 -15 318 -19 l75 -9 -95
4 c-52 3 -221 8 -375 11 -248 6 -279 5 -268 -8 11 -12 67 -16 340 -21 181 -4
378 -11 438 -16 150 -13 375 -20 375 -12 0 4 -13 17 -29 28 -33 25 -111 33
-591 58 -388 20 -441 22 -446 13z"/>
<path class="tree" d="M3805 529 c-104 -18 -137 -30 -122 -46 9 -8 299 45 312 58 15 14 -69
9 -190 -12z"/>
<path class="tree" d="M3861 479 c-102 -13 -171 -30 -171 -41 0 -21 229 17 255 43 10 10 9
10 -84 -2z"/>
<path class="tree" d="M6475 470 c4 -6 -32 -10 -100 -10 -81 0 -106 -3 -103 -12 7 -20 654
-24 673 -4 10 10 38 12 112 10 54 -2 92 -1 85 2 -6 3 -10 10 -6 15 3 5 -130 9
-331 9 -222 0 -334 -3 -330 -10z"/>
<path class="tree" d="M7015 430 c-4 -6 17 -10 54 -10 34 0 61 4 61 10 0 6 -24 10 -54 10
-30 0 -58 -4 -61 -10z"/>
<path class="tree" d="M6303 401 c-85 -4 -130 -10 -125 -16 4 -6 230 -10 641 -10 349 0 626
2 615 4 -10 2 -22 8 -26 15 -8 12 -862 18 -1105 7z"/>
<path class="tree" d="M6108 333 c-10 -2 -18 -8 -18 -11 0 -9 1536 -10 1544 -1 14 14 -227
19 -849 18 -363 -1 -668 -3 -677 -6z"/>
<path class="tree" d="M6350 282 c0 -8 40 -12 123 -15 67 -1 -3 -4 -156 -5 -218 -2 -278 -5
-275 -14 4 -10 153 -14 679 -19 371 -4 720 -10 775 -14 102 -7 149 -2 139 16
-4 5 -68 10 -143 11 l-137 2 120 3 c66 2 123 7 128 12 15 15 -131 21 -695 27
-412 5 -558 4 -558 -4z"/>
<path class="tree" d="M5930 203 c0 -18 141 -23 639 -24 267 0 506 -4 531 -8 26 -4 -121
-10 -340 -14 -212 -4 -461 -12 -555 -17 -93 -5 -243 -12 -332 -16 -135 -6
-163 -10 -163 -22 0 -13 32 -14 257 -9 141 4 305 7 365 7 80 0 107 3 102 11
-8 14 923 6 1290 -11 126 -6 230 -9 232 -7 2 1 -1 9 -6 17 -6 10 -50 15 -187
20 -101 4 -141 7 -93 8 190 5 92 32 -114 32 -57 0 -95 4 -88 9 16 9 -318 19
-1020 28 -349 4 -518 3 -518 -4z"/>
<path class="tree" d="M6520 92 c-25 -4 115 -10 313 -14 201 -4 368 -3 380 2 15 6 -6 9 -68
9 -49 1 -200 3 -335 5 -135 3 -265 1 -290 -2z"/>
<path class="tree" d="M7403 73 c9 -2 23 -2 30 0 6 3 -1 5 -18 5 -16 0 -22 -2 -12 -5z"/>
<path class="tree" d="M5995 60 c-4 -6 23 -10 72 -11 43 0 287 -3 543 -5 449 -4 625 -10
1133 -35 131 -6 241 -9 244 -5 22 22 -39 28 -373 37 -198 5 -510 13 -694 19
-438 13 -917 13 -925 0z"/>
</g>
</svg>
